<?xml version="1.0" encoding="utf-8"?>
<!-- Generator: Adobe Illustrator 16.0.0, SVG Export Plug-In . SVG Version: 6.00 Build 0)  -->
<!DOCTYPE svg PUBLIC "-//W3C//DTD SVG 1.1//EN" "http://www.w3.org/Graphics/SVG/1.1/DTD/svg11.dtd">
<svg version="1.1" id="Layer_1" xmlns="http://www.w3.org/2000/svg" xmlns:xlink="http://www.w3.org/1999/xlink" x="0px" y="0px"
	 width="8.949px" height="7.905px" viewBox="0 0 8.949 7.905" enable-background="new 0 0 8.949 7.905" xml:space="preserve">
<rect y="1.614" fill="#FFFFFF" width="8.949" height="6.292"/>
<polygon fill="#FFFFFF" points="6.808,1.726 6.354,1.726 6.354,0.453 2.654,0.453 2.654,1.726 2.201,1.726 2.201,0.226 2.428,0 
	6.581,0 6.808,0.226 "/>
<path d="M2.662,4.573L2.661,4.571C2.659,4.569,2.658,4.568,2.657,4.566C2.656,4.563,2.655,4.562,2.655,4.56L2.654,4.559
	C2.652,4.554,2.651,4.549,2.65,4.545L2.648,4.54l0.001-0.001c0-0.006,0.003-0.01,0.007-0.013L2.655,4.525
	C2.654,4.524,2.653,4.523,2.653,4.523L2.65,4.521C2.646,4.512,2.646,4.501,2.646,4.491L2.633,4.487
	C2.632,4.489,2.631,4.49,2.63,4.492c0,0.001-0.001,0.002-0.001,0.004c0,0.001-0.001,0.001-0.001,0.002
	C2.625,4.508,2.623,4.517,2.62,4.525C2.618,4.531,2.616,4.537,2.614,4.544C2.613,4.549,2.611,4.555,2.61,4.56
	C2.609,4.565,2.607,4.57,2.606,4.576L2.604,4.581c0,0.001-0.001,0.002-0.001,0.003C2.601,4.591,2.6,4.598,2.598,4.604
	C2.597,4.607,2.596,4.609,2.595,4.612C2.594,4.614,2.594,4.616,2.593,4.618C2.592,4.622,2.591,4.625,2.59,4.628
	C2.589,4.631,2.588,4.633,2.588,4.634C2.587,4.637,2.585,4.638,2.584,4.639C2.583,4.641,2.583,4.644,2.582,4.646
	C2.58,4.653,2.578,4.661,2.571,4.667C2.57,4.673,2.568,4.682,2.559,4.686L2.555,4.688L2.552,4.684
	c-0.014-0.02-0.03-0.045-0.03-0.078c0-0.013,0.005-0.036,0.01-0.046l0.001-0.002c0.001,0,0.001-0.001,0.002-0.002
	c0.001,0,0.002-0.001,0.002-0.001C2.537,4.552,2.538,4.55,2.539,4.547S2.54,4.541,2.542,4.539l0.003-0.003
	c0.003-0.005,0.007-0.008,0.011-0.012c0.003-0.003,0.008-0.006,0.01-0.01c-0.001,0-0.002-0.001-0.003-0.002
	C2.556,4.507,2.549,4.499,2.548,4.485C2.547,4.479,2.55,4.47,2.554,4.46c0-0.002,0.001-0.003,0.003-0.005
	C2.558,4.453,2.558,4.45,2.558,4.448C2.559,4.445,2.56,4.442,2.562,4.439c0.001-0.001,0.002-0.002,0.004-0.003V4.434l0.001-0.002
	C2.568,4.43,2.569,4.429,2.571,4.427c0-0.002,0-0.003,0.001-0.004c0-0.001,0.001-0.002,0.002-0.004L2.563,4.396
	C2.562,4.397,2.559,4.398,2.558,4.399L2.556,4.401c0.001,0,0,0.004,0,0.004C2.555,4.41,2.552,4.413,2.55,4.414
	c0,0.004-0.002,0.006-0.004,0.009v0.001c0,0.002-0.001,0.005-0.002,0.008L2.541,4.438c0,0.001-0.001,0.003-0.002,0.005
	S2.537,4.448,2.536,4.451C2.534,4.456,2.532,4.463,2.53,4.465C2.528,4.468,2.526,4.47,2.524,4.47c0,0.002-0.001,0.004-0.002,0.006
	C2.507,4.494,2.491,4.494,2.475,4.481L2.473,4.479L2.472,4.477c0-0.007,0.003-0.011,0.007-0.013c0.001,0,0.001-0.002,0.002-0.003
	c0.001-0.003,0.002-0.006,0.004-0.009l0.001-0.005C2.489,4.438,2.489,4.429,2.49,4.418c0-0.003,0.001-0.007,0.001-0.011V4.406
	c-0.002,0.001-0.005,0.001-0.008,0v0.002C2.482,4.41,2.481,4.412,2.481,4.413S2.48,4.415,2.479,4.416v0.002
	c0,0.002-0.001,0.005-0.005,0.007c0,0.002,0,0.003-0.001,0.005C2.473,4.436,2.471,4.44,2.468,4.446
	C2.467,4.448,2.466,4.45,2.464,4.453s-0.006,0.01-0.006,0.01c0,0.004-0.002,0.006-0.005,0.007v0.001
	C2.451,4.475,2.45,4.477,2.448,4.479c0,0.001,0,0.003-0.001,0.004L2.446,4.484C2.445,4.486,2.443,4.487,2.441,4.489L2.438,4.491
	C2.437,4.493,2.435,4.495,2.433,4.497C2.428,4.505,2.42,4.514,2.408,4.515H2.401V4.507c-0.001-0.005,0-0.01,0-0.015
	C2.396,4.496,2.389,4.5,2.381,4.502C2.378,4.505,2.373,4.505,2.369,4.503C2.363,4.508,2.353,4.517,2.338,4.527
	c-0.011,0.007-0.025,0.017-0.029,0.02C2.308,4.549,2.307,4.55,2.306,4.551c0,0.001,0,0.004-0.001,0.006
	C2.303,4.561,2.3,4.562,2.298,4.562C2.297,4.564,2.297,4.566,2.296,4.568c-0.001,0.003-0.002,0.006-0.004,0.01V4.58L2.288,4.583
	C2.287,4.585,2.286,4.587,2.284,4.589c0,0-0.002,0.002-0.003,0.003S2.279,4.593,2.279,4.595c0,0.001,0,0.003-0.001,0.005
	C2.277,4.603,2.273,4.604,2.271,4.604C2.271,4.606,2.27,4.608,2.267,4.61C2.263,4.617,2.258,4.626,2.249,4.629L2.244,4.631
	L2.241,4.628C2.238,4.624,2.238,4.619,2.238,4.615V4.613c-0.002,0-0.004,0.002-0.007,0.004c-0.002,0.002-0.007,0.007-0.011,0.01
	C2.22,4.628,2.218,4.631,2.217,4.633c-0.004,0.006-0.01,0.013-0.019,0.013c-0.002,0-0.005-0.001-0.008-0.003L2.187,4.641
	C2.182,4.645,2.176,4.646,2.171,4.646L2.17,4.647c0,0,0,0.002-0.001,0.003C2.168,4.652,2.166,4.653,2.165,4.655
	C2.164,4.658,2.162,4.66,2.16,4.661C2.159,4.663,2.159,4.664,2.158,4.665S2.157,4.668,2.156,4.669
	C2.155,4.671,2.154,4.673,2.154,4.673c-0.001,0-0.002,0.002-0.003,0.002c0,0.007-0.008,0.012-0.013,0.015
	C2.137,4.691,2.135,4.693,2.135,4.693C2.133,4.695,2.131,4.698,2.13,4.7C2.128,4.703,2.126,4.706,2.123,4.709
	C2.12,4.711,2.117,4.711,2.115,4.711C2.114,4.713,2.112,4.715,2.111,4.717C2.109,4.72,2.107,4.723,2.104,4.724
	C2.103,4.726,2.1,4.726,2.098,4.726C2.097,4.727,2.096,4.728,2.095,4.729C2.094,4.73,2.092,4.732,2.09,4.733
	c0,0.001-0.002,0.009-0.003,0.014C2.085,4.762,2.083,4.766,2.08,4.769C2.078,4.77,2.077,4.771,2.075,4.772
	C2.072,4.775,2.07,4.776,2.068,4.777H2.065c0.001,0,0,0.001,0,0.002C2.063,4.78,2.062,4.782,2.058,4.784L2.056,4.786L2.049,4.79
	C2.045,4.791,2.042,4.793,2.038,4.795L2.036,4.797C2.035,4.799,2.033,4.801,2.031,4.802L2.027,4.805L2.025,4.806
	C2.024,4.807,2.023,4.807,2.023,4.808C2.021,4.81,2.019,4.811,2.016,4.812c-0.001,0-0.001,0.001-0.002,0.002
	c0,0-0.001,0.002-0.002,0.003L2.01,4.818L2.006,4.819H2.004C2.003,4.82,2.002,4.821,2,4.822C1.999,4.823,1.998,4.823,1.997,4.824
	C1.995,4.826,1.993,4.828,1.99,4.83L1.988,4.832c-0.01,0.005-0.015-0.003-0.019-0.01L1.969,4.823H1.966L1.965,4.824L1.963,4.826
	H1.961c0,0.001-0.001,0.002-0.002,0.002C1.958,4.829,1.957,4.83,1.956,4.831c-0.002,0.006-0.007,0.01-0.012,0.012
	c0,0.002-0.001,0.004-0.002,0.005C1.941,4.852,1.939,4.853,1.938,4.853c0,0.002-0.001,0.004-0.003,0.006
	C1.933,4.861,1.932,4.862,1.931,4.864c-0.001,0-0.002,0.001-0.002,0.001c0,0.003-0.002,0.006-0.004,0.007
	C1.92,4.883,1.917,4.893,1.915,4.898c0,0.002-0.001,0.007-0.003,0.011C1.911,4.912,1.91,4.915,1.91,4.918
	c-0.003,0.024,0,0.05,0.003,0.066C1.915,4.99,1.915,4.995,1.914,5v0.005l0.001,0C1.92,5.009,1.92,5.024,1.92,5.024v0.004L1.918,5.03
	c0,0.001,0,0.002-0.001,0.004C1.904,5.085,1.901,5.157,1.911,5.21c0.001,0.006,0.003,0.012,0.004,0.018
	c0.002,0.008,0.004,0.014,0.005,0.02l0.001,0.001l0.001,0.006C1.923,5.257,1.924,5.26,1.925,5.264c0,0.003,0.001,0.005,0.002,0.008
	l0.001,0.001L1.93,5.274v0.002h0.001L1.932,5.28c0.001,0.003,0.001,0.006,0.001,0.008v0.003c0,0.001,0.001,0.001,0.002,0.002
	c0,0.001,0.008,0.013,0.011,0.021h0.002l0.001,0.004c0.001,0.002,0.001,0.004,0,0.005C1.95,5.324,1.952,5.326,1.953,5.328
	s0.001,0.005,0.002,0.007v0.002c0,0,0,0,0.001,0.001l0.001,0l0.004,0.006C1.963,5.35,1.966,5.354,1.969,5.356
	C1.97,5.357,1.971,5.36,1.972,5.363v0.002C1.974,5.368,1.975,5.37,1.976,5.371c0.005,0.004,0.009,0.01,0.01,0.014
	c0,0,0.001,0.001,0.002,0.002c0.001,0,0.001,0,0.002,0.001L1.991,5.39l0.001,0.002c0.001,0.002,0.001,0.004,0,0.005h0.001
	C1.995,5.398,1.999,5.401,2,5.406c0,0.001,0.003,0.003,0.005,0.005C2.007,5.412,2.009,5.414,2.01,5.415
	c0.003,0.003,0.004,0.006,0.004,0.008c0.001,0.001,0.001,0.002,0.002,0.003c0,0.001,0.003,0.002,0.005,0.004
	c0.004,0.003,0.007,0.005,0.01,0.009l0.002,0.002L2.031,5.444c0.002,0,0.002,0.001,0.003,0.002l0.003,0.003
	C2.044,5.458,2.053,5.47,2.058,5.474l0.004,0.002c0.002,0.001,0.005,0.002,0.007,0.003c0.004,0.004,0.006,0.008,0.009,0.011
	c0,0.001,0.001,0.002,0.002,0.003h0.002l0.002,0.001c0.004,0,0.005,0.004,0.006,0.006v0.002c0.002,0.002,0.004,0.003,0.005,0.005
	h0.001h0.002l0.003,0c0.001,0,0.003,0.003,0.004,0.004c0,0.001,0.001,0.002,0.002,0.002C2.111,5.515,2.116,5.521,2.12,5.526
	C2.122,5.527,2.124,5.53,2.125,5.53C2.127,5.532,2.13,5.533,2.133,5.535l0.008,0.004l0.004,0.002v0.003h0.001h0.003L2.15,5.547
	c0.001,0,0.002,0.002,0.003,0.003c0.001,0.001,0.003,0.002,0.003,0.003C2.16,5.556,2.163,5.558,2.165,5.56l0.006,0.005
	c0.004,0.002,0.008,0.004,0.012,0.007c0.008,0.004,0.015,0.008,0.02,0.013c0,0.001,0.001,0.001,0.002,0.001
	c0.002,0,0.004,0.001,0.006,0.003c0.002,0,0.002,0.002,0.003,0.002h0.002l0.004,0.001C2.22,5.593,2.221,5.595,2.222,5.596
	c0,0.001,0.001,0.001,0.002,0.001L2.229,5.6c0.003,0.002,0.005,0.003,0.008,0.007h0.001C2.24,5.607,2.243,5.607,2.244,5.609
	c0.009,0.005,0.018,0.009,0.028,0.014c0.006,0.002,0.012,0.005,0.019,0.01c0.001-0.001,0.003-0.001,0.005-0.001h0.002h0.001
	c0.005,0,0.009,0,0.013-0.002c0.005-0.001,0.01-0.001,0.015-0.002c0.001-0.002,0.003-0.003,0.005-0.003l0.005-0.001
	C2.342,5.621,2.347,5.62,2.349,5.619l0.006-0.001c0.002-0.001,0.003-0.001,0.004-0.001c0.003-0.001,0.005-0.002,0.008-0.002h0.003
	c0.002,0,0.004-0.001,0.007-0.002C2.377,5.612,2.379,5.611,2.381,5.61c0.001,0,0.003-0.001,0.004-0.002
	c0.002-0.001,0.004-0.002,0.006-0.003l0.006-0.002C2.398,5.603,2.4,5.603,2.402,5.602S2.406,5.6,2.407,5.598
	C2.41,5.597,2.412,5.595,2.414,5.595l0.005-0.003c0.002,0,0.004,0,0.006,0l0.002-0.001l0.002,0c0,0,0.001,0,0.001-0.001
	c0.001-0.001,0.001-0.002,0.002-0.002l0.005-0.003C2.438,5.581,2.438,5.58,2.439,5.579c0.004-0.002,0.007-0.003,0.01-0.004
	C2.45,5.573,2.451,5.571,2.453,5.57C2.455,5.568,2.458,5.568,2.46,5.568c0.001-0.001,0.002-0.002,0.003-0.003
	c0.002-0.003,0.004-0.007,0.009-0.008c0.001-0.001,0.001-0.001,0.002-0.002C2.484,5.547,2.5,5.532,2.508,5.522
	c0.003-0.004,0.006-0.006,0.008-0.009c0-0.002,0-0.004,0.003-0.006c0.002,0,0.004-0.002,0.006-0.002
	c0-0.001,0.001-0.001,0.002-0.001c-0.001,0,0-0.001,0-0.002c0-0.001,0.001-0.002,0.001-0.004V5.496l0.004-0.003
	C2.532,5.49,2.534,5.489,2.536,5.487c0.001-0.002,0.002-0.003,0.002-0.004C2.54,5.481,2.541,5.48,2.541,5.479
	c0.001-0.001,0.002-0.002,0.003-0.004c0.003-0.005,0.009-0.014,0.009-0.016c0.001-0.003,0.002-0.006,0.004-0.007V5.451
	c0-0.001,0.001-0.003,0.001-0.006V5.443L2.56,5.442c0.003-0.001,0.004-0.003,0.005-0.003c0-0.001,0.001-0.002,0.001-0.003
	c0-0.002,0-0.004,0.001-0.007l0.001-0.002l0.002-0.001c0.003-0.003,0.007-0.013,0.007-0.015c0.001-0.004,0.002-0.006,0.003-0.007
	V5.403c0-0.002,0.001-0.006,0.004-0.008c0.001-0.002,0.001-0.004,0.002-0.007c0.001-0.003,0.002-0.006,0.003-0.01
	C2.6,5.345,2.607,5.307,2.612,5.263c0.001-0.006,0.002-0.013,0.003-0.02S2.618,5.228,2.618,5.22c0.003-0.034,0.002-0.075,0-0.104
	c0-0.004,0.001-0.007,0.001-0.01V5.093C2.618,5.076,2.622,5.062,2.627,5.047C2.631,5.032,2.635,5.02,2.634,5.007V4.988
	C2.635,4.979,2.635,4.97,2.633,4.966C2.627,4.953,2.625,4.94,2.623,4.925C2.619,4.894,2.628,4.868,2.637,4.843
	C2.645,4.822,2.651,4.801,2.65,4.778C2.649,4.763,2.653,4.743,2.656,4.724C2.66,4.697,2.665,4.669,2.66,4.652L2.658,4.646
	l0.007-0.002c0-0.002-0.003-0.01-0.005-0.015c-0.003-0.01-0.006-0.017-0.001-0.023l0.002-0.002h0.003
	c0.001-0.002,0.001-0.003,0.001-0.003c0.001-0.001,0.001-0.003,0.003-0.005c0-0.002-0.001-0.005-0.002-0.011
	C2.665,4.581,2.663,4.577,2.662,4.573"/>
<path d="M6.694,3.706L6.692,3.704c-0.001,0-0.001-0.001-0.001-0.002H6.69L6.688,3.701L6.686,3.699
	C6.683,3.697,6.682,3.696,6.68,3.694c-0.001,0-0.001,0-0.002,0S6.675,3.693,6.675,3.693L6.673,3.692
	C6.671,3.69,6.671,3.69,6.67,3.689c-0.002,0-0.003,0-0.004,0C6.663,3.687,6.662,3.685,6.661,3.684H6.66
	c-0.004,0-0.007-0.003-0.008-0.004C6.65,3.679,6.647,3.678,6.646,3.676c-0.002,0-0.005-0.001-0.008-0.002
	C6.634,3.673,6.63,3.67,6.625,3.668c-0.003-0.002-0.006-0.003-0.01-0.005c-0.003-0.001-0.006-0.002-0.01-0.002
	C6.599,3.659,6.592,3.657,6.589,3.654c-0.001,0-0.001,0.001-0.002,0.001H6.585c-0.003,0-0.006-0.001-0.007-0.004
	c-0.009-0.002-0.02-0.004-0.03-0.007C6.538,3.642,6.529,3.64,6.521,3.638L6.515,3.636C6.508,3.635,6.504,3.633,6.502,3.632H6.501
	H6.498c-0.002,0-0.003,0-0.003,0C6.476,3.628,6.457,3.624,6.438,3.62c-0.021-0.004-0.04-0.008-0.06-0.012
	c-0.003,0-0.006-0.001-0.008-0.001c-0.003,0-0.005,0-0.008,0L6.36,3.605L6.357,3.603C6.354,3.602,6.352,3.602,6.349,3.602
	c-0.004,0-0.008,0-0.012-0.001C6.33,3.6,6.322,3.598,6.315,3.596S6.302,3.592,6.294,3.591C6.283,3.589,6.273,3.587,6.263,3.585
	C6.244,3.581,6.225,3.578,6.206,3.573L6.2,3.572V3.571H6.198H6.197C6.194,3.57,6.193,3.57,6.192,3.569c-0.001,0-0.001,0-0.002,0
	H6.189c-0.002,0-0.004-0.001-0.006-0.003c-0.001,0-0.002-0.001-0.003-0.001c-0.002,0-0.004,0-0.008,0H6.169L6.168,3.563
	C6.165,3.562,6.159,3.56,6.153,3.559C6.143,3.556,6.134,3.553,6.131,3.55H6.128c-0.001,0-0.002,0.001-0.002,0.001
	C6.123,3.55,6.12,3.549,6.118,3.547L6.112,3.545C6.1,3.541,6.086,3.537,6.077,3.531C6.074,3.53,6.07,3.529,6.066,3.527
	C6.063,3.526,6.06,3.525,6.057,3.523S6.052,3.52,6.048,3.52c-0.003,0-0.006-0.002-0.007-0.005C6.035,3.513,6.03,3.511,6.025,3.509
	C6.018,3.507,6.009,3.504,6.002,3.5L5.999,3.498c-0.003,0-0.005-0.002-0.007-0.004C5.989,3.493,5.985,3.492,5.983,3.491
	S5.98,3.49,5.979,3.49H5.979C5.975,3.489,5.973,3.488,5.972,3.486C5.967,3.485,5.965,3.484,5.963,3.484
	C5.961,3.483,5.959,3.482,5.958,3.482C5.954,3.479,5.949,3.477,5.945,3.476C5.942,3.475,5.939,3.474,5.938,3.473
	C5.936,3.471,5.928,3.468,5.925,3.467S5.921,3.466,5.92,3.466H5.918c-0.003,0-0.006-0.002-0.007-0.004c-0.001,0-0.002,0-0.003-0.001
	c-0.003,0-0.006,0-0.008-0.002c-0.004,0-0.008-0.002-0.012-0.004c-0.003-0.001-0.006-0.003-0.01-0.004
	C5.853,3.444,5.799,3.43,5.744,3.43c-0.013,0-0.024,0.001-0.035,0.002C5.693,3.434,5.677,3.437,5.665,3.439
	C5.662,3.44,5.66,3.441,5.657,3.442C5.655,3.443,5.652,3.444,5.649,3.444C5.648,3.445,5.646,3.447,5.645,3.447
	C5.641,3.448,5.637,3.448,5.634,3.448L5.633,3.449C5.618,3.459,5.604,3.467,5.59,3.475C5.579,3.482,5.568,3.488,5.557,3.495
	l0.057-0.001c0.022,0,0.034,0.016,0.034,0.032c0,0.017-0.012,0.034-0.034,0.034H5.56C5.557,3.566,5.553,3.571,5.544,3.575
	c-0.002,0-0.003,0.001-0.005,0.003c-0.001,0-0.002,0.001-0.002,0.001c0.001,0.003,0.001,0.007,0.001,0.01v0.008
	c0.009,0.008,0.019,0.016,0.026,0.021C5.575,3.626,5.58,3.637,5.579,3.65l0.067,0.029c0.013,0.005,0.019,0.016,0.018,0.028
	C5.662,3.72,5.653,3.731,5.641,3.736v0.012L5.642,3.75c0.002,0.004,0.004,0.008,0.006,0.011c0.005,0.006,0.011,0.012,0.016,0.015
	c0.001,0.001,0.002,0.002,0.002,0.002c0.02,0.007,0.039,0.015,0.06,0.022L5.722,3.813C5.701,3.806,5.686,3.802,5.675,3.8v0.004
	C5.69,3.817,5.72,3.835,5.75,3.855c0.087,0.056,0.14,0.091,0.134,0.112C5.882,3.978,5.867,3.979,5.862,3.979H5.859
	c-0.017,0-0.051-0.008-0.088-0.016C5.767,3.97,5.759,3.975,5.751,3.976v0.005C5.755,3.987,5.759,3.994,5.764,4
	c0.002,0.001,0.003,0.002,0.004,0.003C5.772,4,5.776,3.998,5.781,3.998c0.013,0,0.024,0.01,0.039,0.023l0.003,0.003
	C5.828,4.028,5.831,4.03,5.834,4.032l0.038,0.03L5.829,4.045C5.826,4.044,5.824,4.043,5.822,4.043c-0.009,0-0.012,0.014-0.012,0.026
	c0,0.006-0.002,0.013-0.005,0.019c0.017,0.035,0.028,0.063,0.039,0.089c0.001,0.001,0.003,0.001,0.004,0.002
	C5.851,4.18,5.854,4.181,5.855,4.182c0.019,0.009,0.026,0.023,0.023,0.04C5.88,4.223,5.881,4.223,5.882,4.223l0.004,0.002
	c0.003,0.001,0.006,0.002,0.007,0.002c0.004,0,0.005,0.001,0.007,0.003c0.001,0,0.002,0,0.003,0c0.005,0,0.012,0.002,0.016,0.007
	l0.001,0.002C5.92,4.244,5.923,4.257,5.927,4.257H5.93c0.013,0,0.015,0.016,0.016,0.035c0,0.006-0.001,0.01-0.001,0.014
	c0.004,0.009,0.008,0.016,0.013,0.023c0.004,0.009,0.009,0.017,0.014,0.026C5.972,4.357,5.973,4.358,5.974,4.36
	c0.001,0,0.002,0.001,0.003,0.002c0.001,0,0.002,0.001,0.003,0.002c0.007,0.005,0.015,0.011,0.024,0.019L6.002,4.386
	c0.02,0.017,0.037,0.029,0.055,0.038C6.063,4.427,6.068,4.432,6.071,4.44c0.003,0.003,0.006,0.007,0.008,0.012
	c0.014,0.006,0.029,0.014,0.044,0.021c0.004-0.001,0.009-0.002,0.013-0.002c0.002,0,0.003,0,0.005,0
	C6.145,4.468,6.149,4.464,6.154,4.46c0.002-0.001,0.002-0.002,0.003-0.003S6.16,4.454,6.162,4.453l0.002-0.002h0.002
	c0.007,0,0.008,0.006,0.009,0.017V4.47c0.002,0,0.002-0.001,0.002-0.001V4.468L6.18,4.467c0.002-0.001,0.005-0.001,0.007-0.001
	c0.013,0,0.023,0.013,0.031,0.022C6.221,4.49,6.224,4.493,6.225,4.494C6.231,4.498,6.231,4.503,6.23,4.507
	C6.229,4.512,6.225,4.518,6.222,4.522c0.002,0.004,0.005,0.011,0.007,0.016c0.005-0.001,0.01-0.001,0.015-0.001
	c0.002,0,0.004,0,0.005,0.001c0,0,0-0.001,0.001-0.001s0.003,0,0.005,0C6.262,4.538,6.268,4.546,6.279,4.56
	c0.006,0.009,0.019,0.024,0.023,0.025h0.003L6.309,4.59C6.31,4.589,6.312,4.589,6.313,4.589c0.006,0,0.011,0.004,0.015,0.009
	l0.004,0.004l0.002-0.001c0.003-0.002,0.005-0.003,0.007-0.004l0.001-0.002h0.001C6.346,4.594,6.348,4.593,6.35,4.593
	c0.001-0.001,0.001-0.001,0.002-0.001C6.353,4.591,6.354,4.59,6.355,4.589h0.001V4.588l0.002-0.001
	c0.003-0.001,0.006-0.002,0.009-0.002c0.011,0,0.019,0.01,0.024,0.019c0.006,0.008,0.012,0.016,0.02,0.014
	c0.003-0.002,0.006-0.003,0.01-0.004V4.613l0.006-0.001c0.007-0.003,0.016-0.001,0.022,0C6.455,4.613,6.46,4.614,6.463,4.613
	S6.467,4.612,6.47,4.611C6.474,4.609,6.478,4.608,6.48,4.607c0.017-0.005,0.035-0.011,0.05-0.016
	C6.532,4.59,6.533,4.589,6.535,4.589c0.003-0.002,0.006-0.003,0.009-0.003c0.002,0,0.004,0.001,0.006,0.002l0.002,0.001
	c0.005,0.006,0.005,0.015,0.005,0.023c0.001,0.013,0.002,0.01,0.007,0.01c0.003-0.001,0.003-0.001,0.004-0.001
	C6.568,4.619,6.568,4.618,6.57,4.617c0.001-0.001,0.003-0.003,0.008-0.011L6.58,4.603c0,0,0.001-0.001,0.002-0.002
	c0.001,0,0.002-0.001,0.002-0.001l0.005-0.006c0.003-0.005,0.008-0.009,0.015-0.016C6.606,4.575,6.61,4.57,6.614,4.568l0.002-0.002
	c0.001-0.001,0.002-0.001,0.003-0.001c0.001,0,0.002-0.002,0.003-0.003c0.004-0.003,0.009-0.006,0.011-0.007
	c0.001-0.001,0.001-0.001,0.001-0.002l0.004-0.002C6.639,4.55,6.641,4.549,6.643,4.547l0.001-0.002h0.004
	c0.001-0.003,0.002-0.003,0.004-0.004c0,0,0.003-0.002,0.005-0.003C6.657,4.537,6.659,4.536,6.66,4.536
	c0.002-0.001,0.003-0.002,0.004-0.002s0.001-0.001,0.001-0.001l0.002-0.002h0.002c0-0.001,0-0.001,0.001-0.001l0.001-0.002h0.006
	C6.678,4.527,6.679,4.526,6.68,4.526l0.001-0.001l0.003-0.002c0.002,0,0.005-0.002,0.007-0.003c0.001,0,0.002-0.001,0.003-0.001
	l0.002-0.002l0.002,0.001c0.007,0,0.008,0.007,0.01,0.017v0.005l0.002-0.001c0.002-0.001,0.004-0.002,0.006-0.003l0.02-0.009
	l0.01-0.005c0.001,0,0.001-0.001,0.002-0.001V4.518h0.003c0.002-0.001,0.005-0.002,0.007-0.003s0.003-0.001,0.003-0.002
	C6.763,4.511,6.767,4.509,6.77,4.508l0.004-0.002c0.002-0.002,0.006-0.003,0.009-0.004S6.787,4.5,6.789,4.499l0.002-0.002
	c0.001-0.001,0.003-0.002,0.005-0.003c0.003-0.003,0.008-0.006,0.013-0.008c0.007-0.005,0.015-0.009,0.019-0.014L6.83,4.469
	L6.833,4.47l0.002-0.003C6.837,4.466,6.839,4.466,6.84,4.466c0-0.001,0.001-0.001,0.001-0.002C6.842,4.463,6.843,4.462,6.845,4.46
	c0.001,0,0.001-0.001,0.002-0.001c0.001-0.002,0.002-0.003,0.004-0.005C6.853,4.453,6.855,4.451,6.857,4.45L6.86,4.449
	c0.005-0.005,0.011-0.011,0.016-0.018c0.006-0.006,0.011-0.011,0.017-0.016l0.004-0.002C6.898,4.411,6.9,4.409,6.902,4.408
	c0,0,0.003-0.001,0.005-0.001h0.001C6.909,4.406,6.91,4.405,6.911,4.404l0.001-0.001l0.004-0.001C6.917,4.4,6.919,4.399,6.922,4.398
	l0.002-0.003C6.93,4.392,6.933,4.389,6.936,4.386C6.938,4.383,6.94,4.383,6.941,4.383c0.002-0.001,0.003-0.002,0.005-0.004
	c0.001-0.001,0.003-0.003,0.005-0.005s0.005-0.005,0.007-0.008c0.004-0.004,0.008-0.009,0.014-0.013l0.005-0.005L6.98,4.354
	c0.005,0.008,0.008,0.012,0.016,0.012c0.002,0,0.005-0.001,0.008-0.002c0.003,0,0.005-0.001,0.008-0.002c0.002,0,0.005,0,0.007,0
	L7.024,4.36c0.021-0.043,0.036-0.1,0.039-0.145c0.001-0.004,0.001-0.007,0.001-0.01c0-0.002,0.001-0.004,0.001-0.007V4.189
	c0-0.003,0-0.006,0.001-0.01V4.177L7.064,4.174c-0.001-0.003,0-0.008,0.002-0.011C7.065,4.161,7.065,4.159,7.065,4.157
	C7.064,4.155,7.064,4.153,7.064,4.152C7.063,4.15,7.063,4.147,7.063,4.145V4.14V4.139L7.063,4.135
	c-0.001-0.004-0.001-0.008-0.001-0.01v-0.01c0,0-0.001-0.002-0.001-0.003c0-0.002-0.001-0.003-0.001-0.005V4.103
	C7.059,4.1,7.059,4.097,7.059,4.094C7.056,4.076,7.052,4.06,7.048,4.044L7.046,4.036c0-0.004-0.001-0.008-0.002-0.011v0
	C7.042,4.022,7.042,4.02,7.042,4.019C7.041,4.018,7.041,4.016,7.041,4.013V4.008C7.04,4.007,7.039,4.006,7.039,4.005
	c-0.002-0.003-0.002-0.008-0.003-0.01V3.993C7.035,3.99,7.034,3.988,7.034,3.986V3.984H7.03V3.982H7.029
	c-0.003,0-0.004,0-0.006-0.001c-0.001,0-0.002,0-0.003,0c-0.005,0-0.013,0.007-0.014,0.009c0,0.002-0.002,0.005-0.004,0.007
	c0,0.001-0.001,0.002-0.001,0.002L7,4C6.992,4.008,6.989,4.008,6.987,4.008H6.984L6.98,4.003l0.001-0.005
	c0.003-0.029,0-0.034,0-0.034C6.979,3.962,6.979,3.959,6.979,3.957C6.979,3.956,6.978,3.955,6.978,3.954
	C6.974,3.945,6.967,3.94,6.96,3.933C6.958,3.93,6.957,3.929,6.956,3.927C6.955,3.926,6.954,3.925,6.954,3.925
	C6.952,3.924,6.949,3.924,6.947,3.922C6.946,3.921,6.946,3.92,6.945,3.92C6.93,3.905,6.923,3.89,6.923,3.869
	C6.916,3.867,6.91,3.864,6.905,3.862L6.897,3.858C6.896,3.857,6.896,3.857,6.896,3.856c-0.001,0-0.002,0-0.003-0.001
	C6.889,3.854,6.886,3.854,6.884,3.853L6.88,3.849H6.878L6.877,3.847C6.875,3.846,6.873,3.844,6.873,3.842c-0.001,0-0.001,0-0.001,0
	c-0.001,0-0.004,0-0.007-0.001c-0.001,0-0.002-0.002-0.003-0.003L6.861,3.837C6.859,3.836,6.857,3.835,6.856,3.833
	c-0.001,0-0.002-0.001-0.002-0.002H6.854c-0.001,0-0.002,0-0.003-0.001L6.846,3.828V3.827c-0.001,0-0.003-0.001-0.003-0.002
	C6.842,3.824,6.841,3.824,6.84,3.823C6.838,3.822,6.837,3.82,6.836,3.819H6.834L6.831,3.818L6.83,3.817
	C6.829,3.816,6.828,3.815,6.828,3.814C6.824,3.812,6.822,3.809,6.821,3.807C6.818,3.805,6.816,3.804,6.815,3.802L6.812,3.801
	L6.81,3.8L6.809,3.798L6.806,3.797L6.805,3.796L6.802,3.793C6.802,3.792,6.8,3.79,6.8,3.79C6.799,3.788,6.797,3.787,6.795,3.787
	L6.794,3.785C6.792,3.784,6.791,3.782,6.79,3.781V3.78H6.789c-0.001,0-0.001,0-0.002,0C6.785,3.779,6.782,3.778,6.782,3.774
	c-0.001,0-0.001,0-0.001,0C6.779,3.773,6.777,3.773,6.775,3.77c-0.001,0-0.002-0.001-0.002-0.002
	C6.771,3.767,6.771,3.767,6.77,3.765C6.767,3.763,6.765,3.76,6.764,3.758c0,0,0,0-0.001,0L6.759,3.756
	C6.758,3.755,6.756,3.753,6.754,3.75c0-0.001-0.001-0.001-0.001-0.002C6.752,3.747,6.749,3.746,6.747,3.745S6.742,3.742,6.74,3.74
	c-0.001,0-0.002-0.002-0.003-0.003H6.735L6.733,3.736C6.731,3.734,6.73,3.733,6.73,3.733C6.729,3.731,6.729,3.73,6.729,3.729H6.728
	C6.727,3.728,6.724,3.728,6.722,3.725L6.72,3.723C6.717,3.721,6.715,3.719,6.713,3.717C6.708,3.715,6.704,3.712,6.702,3.71
	C6.7,3.709,6.699,3.708,6.698,3.706H6.694z M6.428,3.765c-0.001,0.011-0.01,0.01-0.013,0.01H6.412L6.411,3.779H6.406
	c-0.001,0-0.002-0.001-0.003-0.001L6.401,3.779C6.394,3.78,6.381,3.782,6.37,3.782c-0.006,0-0.015-0.001-0.022-0.003L6.345,3.778
	L6.343,3.777C6.342,3.776,6.341,3.775,6.34,3.774C6.334,3.773,6.33,3.768,6.327,3.764C6.325,3.762,6.323,3.759,6.322,3.758
	L6.317,3.757V3.753c0-0.004,0.002-0.007,0.003-0.009V3.738l0.006,0.001c0.008-0.001,0.015-0.001,0.021-0.002
	c0.009-0.001,0.018-0.002,0.025-0.001c0.022,0.001,0.037,0.012,0.049,0.021l0.007,0.004V3.765z M6.738,3.966
	c0.001,0,0.002,0.001,0.003,0.002c0,0.001,0.001,0.002,0.002,0.002c0.003,0,0.005,0.003,0.006,0.005
	c0.004,0,0.005,0.003,0.006,0.004c0,0,0.004,0.002,0.006,0.002l0.001,0.002c0.001,0,0.001,0.001,0.001,0.001h0.003l0.001,0.003
	c0.001,0,0.002,0.002,0.002,0.003h0.003l0.002,0.002c0.001,0.001,0.002,0.002,0.003,0.003s0.003,0.003,0.005,0.007l0.003,0.005
	L6.781,4.009c0.001,0.004,0.001,0.01-0.004,0.014c0,0,0.001,0,0,0.002c0,0.001-0.002,0.003-0.004,0.007
	C6.772,4.032,6.771,4.033,6.771,4.034c0,0.001-0.001,0.002-0.002,0.004C6.767,4.041,6.764,4.041,6.762,4.042v0.001
	C6.761,4.044,6.759,4.046,6.757,4.047C6.752,4.049,6.744,4.051,6.738,4.051C6.736,4.052,6.734,4.052,6.733,4.052L6.721,4.055
	l0.005-0.011c0.002-0.005,0.004-0.01,0.005-0.016C6.726,4.013,6.71,4.008,6.692,4.002C6.689,4.001,6.688,4,6.685,3.999L6.684,3.998
	c-0.002,0-0.003,0-0.004,0L6.674,3.996V3.994c-0.001,0-0.001,0-0.001-0.001c-0.004,0-0.007-0.001-0.011-0.002L6.659,3.988
	c-0.002,0-0.003-0.001-0.004-0.001L6.652,3.985C6.65,3.984,6.649,3.983,6.648,3.983C6.646,3.981,6.642,3.979,6.638,3.976
	C6.634,3.974,6.633,3.97,6.632,3.968S6.63,3.965,6.628,3.963L6.627,3.962V3.959c-0.001-0.01,0.002-0.016,0.005-0.021l0.002-0.007
	c-0.002,0-0.004,0.002-0.007,0.004C6.621,3.94,6.611,3.945,6.6,3.943L6.597,3.942C6.593,3.939,6.592,3.937,6.59,3.934
	C6.587,3.929,6.586,3.922,6.586,3.915c0-0.005-0.001-0.01-0.002-0.013c0-0.003-0.001-0.005-0.002-0.008
	C6.58,3.89,6.579,3.886,6.578,3.881V3.872l0.009,0.002c0.019,0.005,0.037,0.012,0.058,0.025h0.002l0.002,0.003
	c0.002,0,0.004,0.001,0.006,0.002c0.002,0.001,0.003,0.002,0.003,0.004c0.003,0,0.005,0.001,0.009,0.003l0.002,0.002
	c0.003,0.001,0.006,0.004,0.01,0.007l0.001,0.001c0.003,0.001,0.005,0.003,0.007,0.005c0.001,0,0.002,0.001,0.003,0.002L6.691,3.93
	c0.001,0.001,0.003,0.001,0.003,0.002C6.71,3.944,6.725,3.955,6.738,3.966"/>
<g opacity="0.15">
	<g>
		<defs>
			<rect id="SVGID_1_" x="5.408" y="4.704" width="0.053" height="0.08"/>
		</defs>
		<clipPath id="SVGID_2_">
			<use xlink:href="#SVGID_1_"  overflow="visible"/>
		</clipPath>
		<path clip-path="url(#SVGID_2_)" d="M5.427,4.719C5.422,4.713,5.418,4.703,5.409,4.7c-0.002,0.008-0.001,0.016,0,0.023
			c0,0.002,0,0.003,0.001,0.004S5.413,4.73,5.414,4.732C5.416,4.735,5.416,4.738,5.416,4.74c0.001,0.001,0.001,0.002,0.001,0.003
			C5.435,4.755,5.439,4.781,5.46,4.786c0.002-0.012-0.004-0.034-0.011-0.045C5.444,4.734,5.436,4.73,5.431,4.725
			C5.429,4.723,5.428,4.722,5.427,4.719"/>
	</g>
</g>
<g opacity="0.15">
	<g>
		<defs>
			<rect id="SVGID_3_" x="5.481" y="4.693" width="0.038" height="0.04"/>
		</defs>
		<clipPath id="SVGID_4_">
			<use xlink:href="#SVGID_3_"  overflow="visible"/>
		</clipPath>
		<path clip-path="url(#SVGID_4_)" d="M5.481,4.699C5.478,4.708,5.488,4.711,5.494,4.715c0.007,0.002,0.015,0.018,0.021,0.017
			c0.008,0-0.002-0.015-0.003-0.018C5.509,4.706,5.504,4.698,5.496,4.696C5.491,4.694,5.484,4.693,5.481,4.699"/>
	</g>
</g>
<path d="M4.791,5.444L4.791,5.444H4.786L4.779,5.441c-0.014-0.006-0.026-0.012-0.04-0.017c-0.002,0-0.003,0-0.006-0.001L4.729,5.422
	c-0.001,0-0.003-0.002-0.004-0.003H4.725c-0.004,0-0.009-0.001-0.013-0.003c-0.001,0-0.003-0.001-0.005-0.002S4.702,5.412,4.7,5.412
	C4.695,5.41,4.693,5.41,4.69,5.409H4.688C4.686,5.408,4.684,5.406,4.683,5.405c-0.001,0-0.003,0-0.005,0
	C4.675,5.404,4.672,5.404,4.67,5.403L4.664,5.401C4.662,5.4,4.659,5.399,4.657,5.398C4.655,5.397,4.653,5.396,4.651,5.395
	C4.649,5.394,4.647,5.393,4.645,5.392C4.643,5.391,4.64,5.391,4.637,5.391S4.631,5.39,4.628,5.39
	C4.621,5.388,4.616,5.382,4.611,5.377C4.608,5.373,4.604,5.368,4.601,5.368C4.595,5.366,4.589,5.365,4.583,5.365L4.568,5.362
	C4.563,5.361,4.563,5.36,4.562,5.36c0-0.001-0.001-0.001-0.001-0.001c-0.003,0.001-0.005,0.001-0.008,0
	c-0.002,0-0.004-0.002-0.005-0.002c-0.002,0-0.002,0-0.003,0H4.541H4.538c-0.004,0-0.01-0.004-0.015-0.005L4.52,5.351H4.517
	C4.503,5.35,4.491,5.348,4.479,5.346C4.447,5.342,4.418,5.339,4.384,5.34H4.38L4.378,5.337C4.375,5.332,4.373,5.324,4.372,5.319
	C4.371,5.316,4.371,5.314,4.37,5.313V5.309C4.369,5.308,4.369,5.308,4.368,5.307S4.365,5.304,4.364,5.301
	c-0.006-0.001-0.013,0-0.02,0c-0.009,0.001-0.019,0.001-0.028,0C4.311,5.3,4.304,5.299,4.299,5.297
	c-0.007-0.002-0.015-0.004-0.02-0.004c-0.002,0-0.005-0.001-0.007-0.004L4.267,5.288C4.263,5.287,4.259,5.286,4.254,5.284
	C4.251,5.283,4.247,5.28,4.243,5.278C4.24,5.277,4.235,5.274,4.233,5.274c-0.004,0-0.008-0.002-0.016-0.009
	C4.213,5.263,4.21,5.262,4.207,5.261S4.201,5.259,4.199,5.257C4.195,5.256,4.195,5.253,4.194,5.251c0,0-0.003-0.001-0.004-0.001
	C4.187,5.249,4.185,5.248,4.183,5.246C4.182,5.245,4.181,5.244,4.18,5.244L4.176,5.242C4.175,5.241,4.175,5.24,4.174,5.24
	C4.173,5.243,4.17,5.247,4.166,5.247H4.164L4.159,5.244C4.157,5.242,4.154,5.241,4.152,5.239c0-0.001-0.001-0.001-0.003-0.002
	C4.148,5.236,4.147,5.236,4.146,5.235C4.145,5.234,4.144,5.233,4.143,5.232C4.141,5.231,4.14,5.23,4.139,5.23
	C4.136,5.227,4.135,5.226,4.132,5.225C4.128,5.222,4.126,5.22,4.124,5.218H4.121L4.118,5.215c-0.001,0-0.003-0.003-0.004-0.005
	c0-0.001-0.002-0.001-0.002-0.001c-0.003,0-0.006-0.001-0.009-0.003C4.102,5.204,4.101,5.202,4.099,5.2L4.095,5.199L4.094,5.198
	C4.093,5.197,4.092,5.196,4.092,5.194H4.089c-0.002,0-0.004-0.001-0.005-0.003c-0.001,0-0.002,0-0.002-0.001l-0.002,0
	C4.078,5.187,4.077,5.186,4.076,5.184H4.075L4.073,5.183C4.071,5.182,4.07,5.181,4.069,5.179H4.067L4.063,5.177
	C4.062,5.176,4.062,5.175,4.062,5.173L4.06,5.174L4.058,5.173C4.056,5.172,4.055,5.17,4.054,5.169L4.052,5.168
	c-0.003,0-0.004-0.003-0.006-0.005L4.043,5.162C4.04,5.161,4.039,5.158,4.039,5.156C4.037,5.153,4.035,5.15,4.033,5.147
	C4.032,5.144,4.031,5.141,4.03,5.14L4.026,5.137c0-0.001-0.001-0.002-0.003-0.003c-0.001,0-0.003-0.001-0.004-0.002
	S4.017,5.13,4.016,5.13L4.011,5.126C4.009,5.125,4.008,5.124,4.006,5.123C4.002,5.12,3.999,5.118,3.998,5.118
	c-0.003,0-0.005-0.002-0.006-0.004c0,0-0.001,0-0.002,0S3.986,5.113,3.983,5.112L3.982,5.111L3.981,5.11
	c0,0-0.002-0.001-0.003-0.001C3.977,5.106,3.971,5.103,3.966,5.101c-0.004-0.002-0.008-0.004-0.01-0.005S3.953,5.094,3.952,5.094
	C3.946,5.091,3.942,5.09,3.938,5.089C3.937,5.088,3.933,5.086,3.93,5.085L3.925,5.083C3.922,5.082,3.919,5.081,3.916,5.08
	L3.913,5.078H3.912c-0.002,0-0.005,0-0.007-0.004L3.899,5.073C3.895,5.072,3.892,5.071,3.888,5.07
	C3.882,5.068,3.88,5.062,3.877,5.057C3.876,5.055,3.874,5.051,3.873,5.05c-0.002,0-0.004-0.001-0.005-0.003
	c-0.003,0-0.005-0.001-0.008-0.001c-0.003-0.001-0.007-0.002-0.01-0.003c-0.004-0.002-0.011-0.001-0.016,0
	c-0.008,0.001-0.016,0.002-0.022,0c-0.002-0.001-0.006-0.001-0.01-0.002C3.788,5.037,3.777,5.034,3.771,5.029
	c-0.001,0-0.001,0-0.002,0.001H3.765H3.756c0,0,0.001-0.003,0-0.003H3.754C3.75,5.026,3.748,5.025,3.746,5.024
	C3.744,5.022,3.742,5.022,3.739,5.021c-0.002,0-0.005-0.001-0.006-0.003C3.729,5.017,3.729,5.017,3.727,5.016
	C3.723,5.015,3.719,5.014,3.715,5.013L3.709,5.011V5.009c-0.002,0-0.005,0-0.007-0.001L3.7,5.007
	C3.699,5.006,3.699,5.006,3.698,5.006C3.695,5.004,3.691,5.004,3.688,5.003c-0.003-0.001-0.007-0.002-0.01-0.004L3.676,4.998
	L3.674,4.997c0-0.001-0.002-0.002-0.003-0.002c-0.006-0.003-0.01-0.004-0.015-0.006C3.651,4.988,3.646,4.986,3.643,4.984
	C3.64,4.982,3.638,4.981,3.636,4.979C3.635,4.978,3.633,4.977,3.633,4.976c-0.004,0-0.006-0.001-0.008-0.004
	c-0.002,0-0.005,0-0.008-0.002L3.615,4.968c0,0-0.001,0-0.001-0.001C3.612,4.966,3.611,4.966,3.609,4.965
	C3.6,4.959,3.586,4.949,3.578,4.941H3.577H3.573L3.571,4.938C3.569,4.936,3.568,4.934,3.567,4.933c0-0.001,0-0.002-0.001-0.002
	C3.563,4.927,3.56,4.924,3.556,4.921C3.554,4.919,3.551,4.917,3.549,4.915C3.547,4.912,3.547,4.909,3.547,4.907L3.544,4.904
	C3.539,4.901,3.534,4.897,3.533,4.89c-0.001,0-0.002-0.001-0.002-0.002C3.528,4.884,3.528,4.882,3.527,4.88
	c0-0.001,0-0.002-0.001-0.003C3.524,4.876,3.521,4.874,3.52,4.871c0-0.002,0-0.005-0.001-0.007V4.862
	c-0.001,0-0.001-0.001-0.002-0.001c-0.003,0-0.005-0.002-0.007-0.004C3.506,4.851,3.504,4.842,3.501,4.832
	C3.5,4.83,3.5,4.828,3.499,4.827C3.497,4.822,3.497,4.819,3.497,4.815L3.495,4.813L3.494,4.811C3.492,4.802,3.491,4.794,3.49,4.785
	C3.489,4.779,3.488,4.773,3.487,4.768c0-0.004-0.001-0.007-0.002-0.01S3.483,4.751,3.483,4.747c-0.001-0.003-0.001-0.006-0.001-0.01
	c0-0.003-0.001-0.007-0.001-0.011C3.479,4.724,3.479,4.723,3.479,4.722C3.479,4.721,3.479,4.718,3.479,4.714V4.706
	C3.478,4.701,3.478,4.697,3.477,4.693C3.476,4.685,3.476,4.681,3.476,4.675L3.475,4.669c0-0.002,0-0.003-0.001-0.005
	c0-0.001-0.001-0.003-0.001-0.006C3.472,4.649,3.471,4.642,3.469,4.635C3.468,4.63,3.467,4.624,3.466,4.618
	c0-0.002,0-0.004,0.001-0.006L3.465,4.611L3.464,4.607C3.463,4.6,3.462,4.592,3.461,4.585s-0.002-0.014-0.003-0.02L3.457,4.563
	l0.001-0.002C3.46,4.557,3.463,4.554,3.465,4.552C3.466,4.551,3.466,4.551,3.467,4.55c0-0.001,0.001-0.002,0.001-0.003
	C3.471,4.543,3.472,4.541,3.474,4.54l0.003-0.005C3.479,4.532,3.479,4.53,3.482,4.528c0-0.001,0.001-0.001,0.002-0.002
	c0.002-0.003,0.003-0.003,0.004-0.005c0.005-0.005,0.009-0.01,0.013-0.015c0.007-0.01,0.014-0.02,0.021-0.027
	c-0.002-0.001-0.002-0.002,0-0.004l0.001-0.002c0.001-0.001,0.003-0.002,0.004-0.004c0,0,0.001,0,0.002-0.001
	c0.002-0.003,0.004-0.005,0.006-0.007l0.002-0.002c0-0.002,0.002-0.004,0.004-0.006C3.542,4.451,3.543,4.45,3.544,4.449
	c0.002-0.003,0.004-0.004,0.005-0.005C3.55,4.442,3.55,4.439,3.552,4.437c0.002-0.003,0.005-0.004,0.006-0.004
	c0-0.002,0.001-0.003,0.002-0.005c0.001-0.003,0.003-0.005,0.006-0.005c0-0.002,0.001-0.004,0.002-0.006
	c0.002-0.002,0.004-0.003,0.006-0.005c0-0.001,0.001-0.003,0.002-0.005s0.002-0.003,0.004-0.004L3.581,4.4c0,0,0-0.003,0.001-0.003
	l0.001-0.002C3.585,4.392,3.587,4.391,3.589,4.39c0-0.002,0-0.003,0.001-0.005l0.002-0.003C3.593,4.381,3.593,4.38,3.594,4.379
	s0.002-0.002,0.004-0.003c0-0.001,0.001-0.001,0.001-0.001c0.002-0.003,0.003-0.006,0.005-0.009
	c0.001-0.003,0.003-0.005,0.005-0.008C3.609,4.356,3.61,4.356,3.61,4.355c0.001-0.001,0.002-0.003,0.003-0.004V4.347
	c0.001-0.003,0.003-0.005,0.005-0.006C3.62,4.339,3.62,4.337,3.621,4.336c0.001-0.003,0.002-0.005,0.003-0.008l0.003-0.006
	l0.001,0.001C3.629,4.32,3.629,4.318,3.63,4.316c0,0,0.002-0.003,0.004-0.004C3.635,4.31,3.636,4.309,3.636,4.307l0.001-0.003
	L3.643,4.29c0.002-0.004,0.003-0.008,0.005-0.011C3.653,4.265,3.658,4.246,3.663,4.23l0.003-0.014c0.001,0,0-0.001,0-0.002V4.208
	l0.001-0.004C3.668,4.2,3.669,4.195,3.669,4.191c0.001-0.004,0-0.007,0-0.011C3.668,4.177,3.668,4.173,3.668,4.169
	C3.667,4.165,3.667,4.161,3.667,4.157c0.001-0.003,0.001-0.007,0-0.009c-0.003-0.002-0.002-0.006-0.001-0.01L3.665,4.137V4.135
	c-0.001,0-0.004-0.002-0.004-0.013L3.659,4.118C3.657,4.115,3.655,4.109,3.655,4.104C3.654,4.103,3.654,4.101,3.654,4.1
	C3.653,4.099,3.652,4.096,3.65,4.094c-0.002-0.003-0.005-0.006-0.006-0.01c0,0-0.001-0.001-0.002-0.002L3.638,4.07
	C3.637,4.069,3.636,4.068,3.634,4.066c-0.003-0.004-0.008-0.01-0.009-0.018L3.624,4.045l0.003-0.003
	C3.645,4.027,3.653,3.998,3.652,3.95C3.626,3.92,3.598,3.903,3.562,3.899c-0.008,0-0.016,0-0.024,0
	c-0.022,0-0.044,0.001-0.058,0.003C3.46,3.905,3.456,3.907,3.456,3.908C3.452,3.91,3.45,3.91,3.447,3.909v0.002H3.442
	C3.44,3.912,3.437,3.912,3.435,3.913c-0.003,0-0.005,0-0.007,0.001c-0.011,0.002-0.021,0.005-0.03,0.008
	C3.39,3.923,3.382,3.925,3.375,3.927C3.369,3.929,3.364,3.93,3.36,3.931C3.356,3.933,3.353,3.934,3.35,3.934
	C3.341,3.937,3.333,3.938,3.324,3.939C3.315,3.941,3.308,3.942,3.3,3.944c0.001,0.009,0,0.017-0.001,0.024
	c0,0.007-0.001,0.015-0.001,0.021v0.005L3.294,3.996c-0.002,0-0.003,0.001-0.004,0.002C3.289,3.998,3.288,3.999,3.287,4
	S3.285,4.002,3.284,4.003C3.283,4.005,3.282,4.006,3.28,4.007L3.279,4.008c0,0-0.004,0.001-0.005,0.001
	C3.273,4.01,3.273,4.011,3.272,4.011L3.27,4.013c0,0.001-0.002,0.001-0.005,0.002C3.264,4.016,3.263,4.016,3.262,4.016
	C3.261,4.017,3.261,4.018,3.261,4.018C3.259,4.021,3.257,4.024,3.253,4.025L3.251,4.027C3.245,4.031,3.239,4.036,3.233,4.042
	L3.231,4.044C3.225,4.05,3.219,4.055,3.213,4.059c0,0.002,0,0.005-0.002,0.006C3.21,4.067,3.208,4.068,3.206,4.068
	c0,0.001,0,0.002-0.001,0.003L3.204,4.073C3.202,4.074,3.199,4.076,3.197,4.078C3.195,4.079,3.19,4.083,3.188,4.084
	c0,0.005-0.003,0.009-0.01,0.015C3.178,4.1,3.177,4.101,3.176,4.101C3.174,4.104,3.172,4.106,3.169,4.108L3.17,4.112L3.167,4.116
	c0,0-0.001,0.001-0.001,0.002C3.164,4.121,3.162,4.123,3.16,4.124C3.159,4.125,3.158,4.126,3.158,4.126
	C3.156,4.128,3.155,4.13,3.154,4.131c0,0.001-0.001,0.003-0.002,0.005L3.151,4.137C3.15,4.138,3.149,4.139,3.148,4.139
	c0,0.002,0,0.003-0.003,0.005C3.145,4.146,3.144,4.147,3.143,4.148c-0.001,0-0.002,0.001-0.003,0.001
	C3.139,4.152,3.139,4.153,3.138,4.155c0,0.004-0.002,0.006-0.004,0.007C3.133,4.164,3.132,4.165,3.131,4.167
	S3.128,4.172,3.127,4.173c0,0.004-0.002,0.006-0.004,0.008c0,0.001-0.001,0.002-0.001,0.002c0,0.006-0.003,0.008-0.005,0.009
	c0,0.004-0.003,0.008-0.005,0.01L3.111,4.204c0,0.001-0.001,0.004-0.003,0.005c0,0-0.001,0.001-0.001,0.002
	c0,0.002,0,0.003-0.001,0.005C3.104,4.219,3.104,4.221,3.103,4.223c-0.001,0.003-0.004,0.008-0.004,0.01
	C3.098,4.236,3.096,4.239,3.095,4.241c-0.001,0-0.001,0.001-0.001,0.001C3.093,4.245,3.092,4.247,3.09,4.249
	c0,0.001-0.001,0.003-0.001,0.004c0,0.003,0,0.005-0.001,0.007C3.087,4.263,3.086,4.266,3.085,4.27
	C3.084,4.272,3.083,4.274,3.082,4.276C3.075,4.302,3.07,4.322,3.068,4.342C3.066,4.362,3.066,4.379,3.067,4.391
	c0.001,0.008,0,0.016,0,0.022c0,0.008,0,0.015,0.002,0.022L3.07,4.44L3.066,4.442C3.065,4.444,3.063,4.444,3.063,4.446L3.063,4.449
	C3.062,4.452,3.06,4.453,3.057,4.454c0,0.003,0,0.005-0.002,0.007S3.052,4.463,3.051,4.464c0,0.001,0,0.003-0.001,0.004
	C3.048,4.469,3.047,4.471,3.046,4.471L3.044,4.473c-0.003,0.005-0.007,0.01-0.009,0.014v0.005L3.033,4.494
	C3.031,4.495,3.03,4.496,3.028,4.496v0.003c0,0.002,0,0.005-0.002,0.008C3.025,4.509,3.022,4.51,3.02,4.511
	c-0.002,0.006-0.004,0.01-0.006,0.018c0,0.002-0.001,0.004-0.004,0.005C3.009,4.536,3.009,4.538,3.008,4.54
	C3.007,4.541,3.007,4.543,3.007,4.544C3.004,4.549,3.001,4.555,3.001,4.557C2.988,4.59,2.979,4.627,2.974,4.672L2.973,4.678
	C2.97,4.691,2.968,4.703,2.967,4.715v0.009c-0.002,0.022-0.004,0.047-0.001,0.07C2.967,4.796,2.967,4.798,2.968,4.8
	c0,0.01,0.001,0.021,0.001,0.029c0.001,0.02,0.002,0.038,0.005,0.055c0,0,0.002,0.002,0.002,0.005c0.001,0.002,0,0.004,0,0.006
	C2.979,4.92,2.982,4.938,2.986,4.959c0.007,0.029,0.015,0.064,0.025,0.095c0.001,0.002,0.002,0.005,0.003,0.007
	C3.016,5.065,3.018,5.072,3.02,5.074c0.003,0.002,0.003,0.007,0.004,0.015C3.024,5.09,3.024,5.091,3.025,5.093
	c0,0.001,0,0.003,0.001,0.004c0,0.002,0.001,0.003,0.002,0.004C3.029,5.103,3.03,5.104,3.03,5.106l0.002,0L3.033,5.11
	c0.001,0.003,0.002,0.006,0.002,0.009V5.12C3.037,5.121,3.039,5.122,3.04,5.125C3.042,5.128,3.042,5.13,3.042,5.131
	c0.001,0.001,0.001,0.002,0.001,0.004c0.004,0.003,0.003,0.007,0.003,0.009C3.048,5.15,3.051,5.153,3.054,5.156
	c0.002,0.002,0.002,0.006,0.001,0.009c0.004,0.006,0.007,0.013,0.008,0.02C3.066,5.187,3.07,5.189,3.073,5.19
	c0.003,0,0.005,0.001,0.008,0.002c0.002,0.001,0.004,0.003,0.004,0.005c0.003,0,0.004,0.001,0.006,0.003
	c0.002,0,0.005,0.001,0.008,0.003c0.002,0,0.003,0.003,0.004,0.004c0.005,0.001,0.008,0.005,0.01,0.007
	c0.001,0.001,0.001,0.001,0.002,0.002l0.003,0.001c0.007,0.004,0.011,0.007,0.014,0.011h0.005l0.002,0.002
	C3.139,5.232,3.14,5.234,3.141,5.235c0.001,0.001,0.002,0.002,0.003,0.002C3.145,5.239,3.146,5.24,3.147,5.24
	C3.148,5.241,3.15,5.242,3.151,5.243s0.002,0.002,0.004,0.004C3.156,5.248,3.16,5.251,3.161,5.252
	c0.007,0.002,0.011,0.006,0.013,0.011c0.001,0,0.002,0.002,0.002,0.002c0.006,0.002,0.01,0.008,0.012,0.01l0.004,0.001
	C3.194,5.278,3.195,5.28,3.196,5.282c0.001,0.001,0.002,0.002,0.003,0.004C3.2,5.287,3.201,5.287,3.201,5.288h0.002l0.004,0.001
	C3.21,5.29,3.211,5.293,3.212,5.295c0,0.001,0.001,0.001,0.002,0.001c0.001,0.001,0.003,0.002,0.004,0.002h0.001
	c0.003-0.001,0.005-0.003,0.008-0.003h0.002l0.003,0.002C3.236,5.301,3.24,5.303,3.244,5.305C3.25,5.309,3.256,5.313,3.263,5.32
	C3.266,5.324,3.27,5.333,3.274,5.339c0.002,0.002,0.003,0.005,0.004,0.006c0.004,0.006,0.008,0.007,0.013,0.008
	C3.297,5.355,3.304,5.356,3.31,5.362c0.004,0.005,0.009,0.011,0.013,0.017C3.326,5.384,3.33,5.39,3.336,5.394
	c0.012,0.01,0.028,0.018,0.044,0.025c0.007,0.003,0.014,0.006,0.02,0.009c0.021,0.011,0.028,0.021,0.037,0.04
	c0.014,0.026,0.02,0.03,0.037,0.043C3.478,5.514,3.479,5.516,3.485,5.52c0.016,0.012,0.025,0.025,0.037,0.04l0.004,0.005
	C3.541,5.584,3.56,5.606,3.582,5.612c0.015,0.004,0.034,0.012,0.045,0.017C3.631,5.63,3.632,5.634,3.633,5.637
	c0.001,0.001,0.001,0.001,0.002,0.002C3.637,5.64,3.64,5.641,3.642,5.641c0.003,0.001,0.004,0.002,0.007,0.004
	C3.649,5.646,3.65,5.646,3.651,5.646l0.002,0c0.004,0.002,0.007,0.008,0.012,0.02c0.002,0.003,0.004,0.008,0.006,0.01
	c0.002,0.001,0.003,0.002,0.004,0.004c0.002,0.001,0.003,0.001,0.004,0.001c0.005,0.002,0.008,0.004,0.015,0.007
	c0.001,0,0.003,0.002,0.003,0.002c0.001,0,0.003,0,0.005,0.002h0.003h0.002c0.005,0.001,0.006,0.004,0.006,0.006
	c0.001,0,0.002,0,0.002,0.001c0.002,0,0.003,0,0.005,0.001h0.002l0.002,0.002c0.001,0,0.003,0.001,0.004,0.002l0.001,0.001
	c0.001,0,0.002,0,0.004,0.001l0.001,0.001c0.001,0,0.001,0.001,0.002,0.001C3.738,5.71,3.74,5.712,3.742,5.714
	c0.004,0,0.006,0.001,0.007,0.003C3.752,5.719,3.755,5.72,3.758,5.721s0.006,0.002,0.009,0.003h0.001L3.77,5.727
	C3.772,5.729,3.774,5.73,3.775,5.731C3.781,5.734,3.787,5.74,3.792,5.745c0.004,0.004,0.007,0.008,0.011,0.01
	c0.001,0,0.002,0.001,0.004,0.002C3.808,5.758,3.809,5.759,3.81,5.759c0.002,0,0.006,0.001,0.008,0.004c0.002,0,0.004,0,0.007,0.002
	C3.827,5.766,3.828,5.768,3.829,5.77c0.001,0,0.001,0,0.002,0.001c0.003,0,0.006,0,0.009,0.002c0.005,0.003,0.009,0.006,0.013,0.009
	h0.005l0.001,0.002L3.86,5.785c0.01,0.006,0.021,0.013,0.027,0.02c0,0,0.001,0,0.002,0c0.002,0.001,0.004,0.002,0.005,0.003
	C3.896,5.809,3.899,5.81,3.9,5.811c0.004,0.001,0.006,0.002,0.009,0.004c0.003,0.001,0.006,0.004,0.009,0.006
	c0.004,0.002,0.009,0.006,0.011,0.006c0.003,0,0.006,0.002,0.007,0.004C3.937,5.832,3.94,5.833,3.942,5.833
	c0.003,0.001,0.005,0.002,0.007,0.003c0.006,0.004,0.013,0.007,0.017,0.01C3.969,5.848,3.975,5.85,3.977,5.851
	c0.005,0,0.007,0.003,0.008,0.005c0,0,0,0-0.001-0.001c0.005,0.001,0.008,0.004,0.01,0.006c0.003,0,0.006,0.002,0.007,0.004
	c0.002,0.001,0.005,0.002,0.008,0.003c0.004,0.001,0.007,0.003,0.01,0.004C4.02,5.873,4.022,5.875,4.024,5.876
	c0.001,0,0.002,0.001,0.003,0.001c0.005,0,0.014,0.006,0.019,0.011l0.003-0.001c0.004,0,0.007,0.002,0.009,0.005
	c0.005,0.002,0.012,0.004,0.018,0.007L4.077,5.9c0.003,0,0.006,0.002,0.008,0.004c0.005,0.002,0.01,0.004,0.011,0.004l0.002,0.001
	C4.101,5.91,4.104,5.911,4.106,5.912s0.006,0.001,0.009,0.003C4.119,5.916,4.124,5.918,4.129,5.92l0.006,0.003
	c0.005,0.001,0.008,0.003,0.01,0.004h0.004c0.001,0,0.002,0,0.003,0.001c0.001,0,0.004,0.001,0.006,0.003
	c0.002,0.001,0.005,0.001,0.008,0.002c0.004,0.001,0.008,0.002,0.012,0.003c0.009,0.003,0.017,0.007,0.025,0.01
	c0.012,0.006,0.023,0.012,0.034,0.013c0.002,0,0.005,0.001,0.007,0.004c0.004,0.001,0.008,0.002,0.011,0.003
	c0.01,0.003,0.019,0.006,0.025,0.006c0.001,0,0.004,0.001,0.006,0.004c0.003,0,0.006,0,0.008,0.001c0.005,0,0.01,0,0.015,0.001
	L4.313,5.98L4.313,5.982c0.001,0,0.004,0,0.005,0c0.001,0,0.003-0.002,0.005-0.002c0.006,0.002,0.009,0.004,0.01,0.006
	c0.003,0,0.006,0,0.009,0.002h0.003L4.347,5.99c0.004,0.001,0.005,0.001,0.01,0.002c0.003,0,0.005,0.001,0.007,0.003
	C4.367,5.996,4.37,5.996,4.374,5.998C4.378,5.999,4.384,6,4.39,6.002l0.016,0.004c0.003,0,0.006,0.002,0.007,0.002
	c0.002,0,0.004,0.001,0.006,0.003H4.42h0.002c0.002,0,0.005,0,0.008,0.003c0,0,0.001-0.001,0.002-0.001h0.002
	c0.002,0,0.004,0.001,0.007,0.004C4.443,6.018,4.447,6.019,4.451,6.02c0.008,0.002,0.016,0.004,0.021,0.007h0.004h0.002
	c0,0,0.004,0,0.006,0.004c0.001,0,0.003,0.001,0.004,0.001c0.009,0.002,0.014,0.004,0.018,0.007h0.002c0.001,0,0.005,0,0.008,0.002
	h0.002L4.52,6.042c0.006,0.003,0.015,0.006,0.02,0.007C4.541,6.048,4.544,6.05,4.546,6.052c0.002,0.001,0.005,0.001,0.008,0.002
	c0.004,0.001,0.008,0.002,0.012,0.003L4.571,6.06c0.002,0.001,0.004,0.001,0.006,0.003C4.58,6.064,4.585,6.065,4.585,6.065
	c0.002,0.001,0.003,0.001,0.004,0.001c0.002,0.001,0.004,0.001,0.007,0.003c0.002,0,0.004,0.001,0.006,0.002
	c0.001,0.001,0.002,0.001,0.003,0.002C4.612,6.075,4.619,6.078,4.626,6.08c0.008,0.002,0.015,0.004,0.021,0.007H4.65L4.652,6.09
	c0.002,0,0.005,0.001,0.008,0.002c0.002,0.001,0.005,0.001,0.008,0.002c0.006,0.003,0.011,0.005,0.016,0.007l0.004,0.002
	c0.028,0.01,0.054,0.021,0.079,0.031C4.794,6.146,4.82,6.157,4.849,6.167C4.854,6.169,4.86,6.17,4.863,6.172h0.002h0.001
	c0.001,0,0.004,0.001,0.005,0.003C4.874,6.176,4.877,6.177,4.88,6.177C4.884,6.178,4.888,6.179,4.892,6.18
	c0.002,0.001,0.003,0.002,0.006,0.003L4.9,6.185c0.004,0.001,0.008,0.002,0.011,0.003c0.004,0,0.009,0.002,0.013,0.002l0.011,0.004
	c0.01,0.003,0.019,0.006,0.029,0.009c0.002,0.001,0.005,0.002,0.007,0.002C4.976,6.207,4.979,6.208,4.984,6.21h0.002l0.002,0.002
	H4.99c0.002,0,0.003,0,0.004,0h0.002c0.003,0.001,0.005,0.002,0.008,0.003s0.005,0.002,0.009,0.003c0,0,0.003,0,0.006,0.003
	c0.004,0.001,0.009,0.002,0.014,0.003c0.011,0.002,0.019,0.003,0.022,0.005l0.002-0.001c0.002,0,0.004,0.001,0.005,0.004
	l0.002-0.001h0.004h0.002c0.003,0,0.005,0.002,0.007,0.004C5.091,6.238,5.109,6.239,5.13,6.239c0.02,0,0.039-0.001,0.057-0.002
	c0.021-0.001,0.038-0.002,0.056-0.002h0.004c0.015,0,0.03-0.001,0.046-0.001c0.016-0.001,0.031-0.001,0.046-0.001
	c0.014,0,0.037-0.006,0.058-0.011c0.02-0.004,0.039-0.008,0.055-0.01c0.006,0,0.012-0.001,0.019-0.002
	c0.013-0.002,0.026-0.005,0.038-0.003c0.01,0.002,0.019,0.007,0.026,0.011C5.542,6.223,5.55,6.227,5.56,6.227
	c0.003,0,0.008-0.002,0.013-0.004S5.583,6.218,5.59,6.218C5.601,6.217,5.608,6.22,5.615,6.223C5.62,6.225,5.625,6.227,5.63,6.228
	c0.008,0.001,0.016,0,0.025-0.001c0.012-0.001,0.023-0.002,0.031,0c0.011,0.002,0.018,0.007,0.024,0.011
	c0.008,0.005,0.015,0.01,0.021,0.011c0.006,0.001,0.01-0.001,0.016-0.003c0.004-0.002,0.01-0.003,0.016-0.004h0.003
	c0.021,0,0.034,0.009,0.046,0.017C5.824,6.266,5.834,6.273,5.85,6.275l0.014,0.002c0.024,0.004,0.048,0.008,0.07,0.015
	c0.012,0.005,0.022,0.007,0.032,0.01h0.002c0.004,0.001,0.007,0.002,0.01,0.003c0.01,0.004,0.011,0.003,0.015,0
	c0.002-0.001,0.004-0.003,0.006-0.004L6,6.3c0.004-0.002,0.006-0.002,0.01-0.002h0.002c0.007,0,0.008,0.006,0.008,0.009v0.001
	c0.004,0.001,0.007,0.002,0.01,0.003c0.001,0,0.003,0.001,0.004,0.001s0.001,0,0.002,0L6.036,6.31H6.04l0.001-0.002l0.005-0.001
	h0.002C6.049,6.306,6.049,6.306,6.05,6.305c0.004-0.004,0.008-0.004,0.011-0.004c0.001,0,0.001,0,0.001-0.001l0.004-0.002L6.068,6.3
	c0.02,0.011,0.043,0.016,0.074,0.016c0.021,0,0.042-0.001,0.065-0.005h0.009C6.232,6.31,6.241,6.309,6.252,6.307
	c0.003-0.001,0.006-0.001,0.009-0.001c0.003-0.001,0.005-0.001,0.007-0.001C6.27,6.302,6.27,6.301,6.273,6.3l0.003-0.001
	c0.001,0,0.001,0,0.001,0l0.001-0.001h0.003C6.284,6.297,6.287,6.296,6.29,6.295c0.002,0,0.004-0.001,0.006-0.002
	c0.01-0.004,0.018-0.009,0.027-0.014c0.001-0.001,0.003-0.002,0.004-0.004C6.329,6.273,6.331,6.271,6.332,6.27
	C6.335,6.268,6.338,6.267,6.34,6.267l0.002-0.001c0.001-0.001,0.002-0.003,0.004-0.004C6.347,6.261,6.348,6.26,6.349,6.259
	c0.002-0.003,0.004-0.004,0.008-0.007L6.359,6.25c0.004-0.003,0.013-0.01,0.015-0.013c0-0.006,0.006-0.009,0.009-0.01
	c0.001-0.002,0.002-0.003,0.002-0.004c0.001-0.002,0.002-0.004,0.003-0.006C6.39,6.215,6.392,6.214,6.394,6.214
	c0-0.003,0-0.005,0.001-0.006c0.003-0.004,0.005-0.005,0.007-0.006l0.001-0.001c0.001-0.005,0.005-0.01,0.008-0.013V6.184
	C6.412,6.181,6.414,6.18,6.415,6.178c0.001,0,0.001,0,0.001,0c0.003-0.005,0.005-0.011,0.005-0.013c0-0.004,0.003-0.007,0.004-0.009
	C6.426,6.153,6.427,6.15,6.431,6.149C6.433,6.143,6.435,6.137,6.436,6.13c0.001-0.004,0.002-0.009,0.003-0.013l0.003-0.005
	c0.002-0.006,0.005-0.014,0.006-0.02V6.09c0-0.001,0-0.003,0.001-0.005c0-0.002,0.001-0.004,0.002-0.006
	c0.002-0.008,0.002-0.014,0.003-0.02V6.05c0-0.005,0.002-0.009,0.003-0.011c-0.001-0.003-0.003-0.006-0.003-0.01V6.023h0.003
	c0.001-0.007,0.001-0.012,0-0.017C6.455,6.003,6.455,6,6.455,5.996c-0.001-0.005,0-0.009,0-0.012V5.981L6.452,5.979V5.977
	c0-0.005-0.001-0.009-0.001-0.013V5.957C6.45,5.951,6.448,5.944,6.447,5.94c0-0.002-0.001-0.005-0.001-0.006
	C6.445,5.932,6.445,5.931,6.444,5.929C6.443,5.925,6.442,5.923,6.442,5.921c0-0.001-0.001-0.002-0.001-0.004L6.438,5.908
	C6.437,5.907,6.437,5.906,6.437,5.905L6.436,5.902c0-0.001,0-0.002-0.001-0.003C6.434,5.896,6.434,5.894,6.434,5.892
	C6.433,5.89,6.433,5.889,6.433,5.888L6.432,5.885c0-0.006,0.005-0.007,0.018-0.009c0.001,0,0.003-0.001,0.005-0.001
	C6.453,5.874,6.453,5.873,6.453,5.873C6.451,5.871,6.45,5.87,6.449,5.868C6.448,5.867,6.447,5.865,6.447,5.864
	C6.446,5.863,6.444,5.862,6.443,5.861V5.859C6.442,5.856,6.441,5.853,6.44,5.852c0-0.001-0.002-0.002-0.002-0.003L6.437,5.845
	c-0.007-0.01-0.005-0.02-0.004-0.027V5.811c0-0.002,0.001-0.004,0.002-0.006L6.434,5.804C6.431,5.803,6.422,5.798,6.426,5.791
	c0-0.002,0.002-0.004,0.004-0.005c0-0.002,0-0.004,0.001-0.006s0.004-0.003,0.006-0.004c0-0.001,0-0.003,0-0.005
	C6.438,5.77,6.438,5.768,6.44,5.767V5.765C6.438,5.764,6.437,5.762,6.435,5.761C6.427,5.757,6.419,5.753,6.42,5.745
	C6.422,5.73,6.418,5.722,6.411,5.711C6.409,5.707,6.406,5.703,6.404,5.699L6.401,5.693C6.395,5.681,6.391,5.67,6.385,5.661
	C6.381,5.653,6.375,5.644,6.373,5.64C6.372,5.639,6.372,5.638,6.371,5.637C6.37,5.635,6.369,5.633,6.367,5.632
	C6.366,5.631,6.364,5.63,6.364,5.629C6.362,5.627,6.361,5.625,6.359,5.623L6.358,5.621C6.356,5.617,6.353,5.614,6.35,5.611
	C6.348,5.609,6.346,5.608,6.345,5.606C6.343,5.604,6.343,5.602,6.342,5.601C6.341,5.601,6.34,5.6,6.339,5.6
	C6.335,5.597,6.334,5.595,6.332,5.592C6.329,5.589,6.328,5.588,6.326,5.588L6.323,5.587L6.321,5.584
	C6.32,5.583,6.318,5.583,6.316,5.582c-0.005-0.001-0.011-0.003-0.013-0.01L6.302,5.568l0.005-0.003
	c0.002-0.002,0.005-0.003,0.006-0.003C6.315,5.561,6.317,5.56,6.318,5.56C6.316,5.555,6.312,5.549,6.31,5.543
	C6.308,5.541,6.307,5.538,6.305,5.536C6.304,5.534,6.303,5.531,6.301,5.529C6.3,5.527,6.3,5.526,6.298,5.524
	C6.297,5.523,6.296,5.521,6.294,5.52C6.292,5.518,6.29,5.516,6.288,5.514C6.286,5.511,6.286,5.508,6.285,5.506
	c0.001,0,0-0.001-0.001-0.001L6.281,5.502L6.28,5.5L6.275,5.495C6.274,5.493,6.274,5.491,6.273,5.489V5.487
	C6.272,5.486,6.271,5.485,6.27,5.484C6.268,5.482,6.266,5.481,6.264,5.478C6.263,5.476,6.262,5.473,6.26,5.471
	C6.259,5.469,6.258,5.467,6.257,5.465C6.256,5.464,6.254,5.463,6.253,5.462C6.251,5.46,6.249,5.458,6.248,5.455
	C6.245,5.454,6.244,5.452,6.242,5.45L6.241,5.449C6.24,5.447,6.24,5.445,6.24,5.444C6.238,5.441,6.237,5.439,6.235,5.438
	C6.233,5.436,6.231,5.434,6.229,5.431c0,0-0.001-0.001-0.002-0.003C6.225,5.426,6.223,5.424,6.22,5.422
	C6.218,5.42,6.217,5.417,6.216,5.414C6.215,5.412,6.214,5.41,6.213,5.409C6.211,5.407,6.21,5.405,6.208,5.404
	C6.206,5.402,6.205,5.401,6.203,5.399C6.2,5.395,6.197,5.391,6.194,5.387S6.188,5.38,6.186,5.376
	C6.184,5.373,6.18,5.369,6.177,5.366S6.17,5.36,6.166,5.355C6.164,5.353,6.163,5.35,6.161,5.347c0-0.001-0.001-0.003-0.002-0.004
	C6.157,5.34,6.155,5.339,6.154,5.338C6.152,5.336,6.15,5.334,6.149,5.332C6.148,5.331,6.146,5.329,6.145,5.328
	C6.143,5.326,6.141,5.324,6.14,5.322C6.138,5.319,6.136,5.317,6.135,5.314S6.133,5.311,6.132,5.309
	C6.131,5.308,6.129,5.306,6.127,5.304C6.126,5.303,6.124,5.301,6.122,5.299C6.121,5.298,6.12,5.297,6.119,5.296
	C6.116,5.293,6.114,5.291,6.112,5.288C6.11,5.286,6.109,5.283,6.107,5.281C6.106,5.279,6.104,5.277,6.104,5.276
	C6.103,5.274,6.102,5.273,6.101,5.271C6.099,5.269,6.097,5.268,6.096,5.266c-0.004-0.005-0.007-0.009-0.01-0.013
	C6.083,5.25,6.081,5.246,6.078,5.243L6.076,5.24L6.073,5.237C6.071,5.236,6.071,5.233,6.07,5.231
	C6.069,5.228,6.068,5.227,6.066,5.226C6.063,5.224,6.062,5.222,6.061,5.219C6.06,5.217,6.058,5.215,6.057,5.212L6.054,5.206
	c0,0-0.001,0-0.001-0.001C6.05,5.202,6.042,5.194,6.05,5.186l0.001-0.002h0.003c0.001-0.001,0.003-0.001,0.004-0.001l0.006,0.001
	C6.075,5.183,6.078,5.181,6.078,5.18l0.001-0.004H6.08C6.079,5.175,6.079,5.174,6.079,5.174C6.077,5.173,6.076,5.171,6.076,5.169
	V5.166L6.075,5.165C6.072,5.159,6.072,5.156,6.071,5.154c0-0.002-0.001-0.003-0.001-0.005c-0.001,0-0.003-0.002-0.004-0.002
	L6.063,5.145V5.143C6.063,5.141,6.063,5.139,6.062,5.137V5.135c0-0.001-0.001-0.002-0.001-0.003H6.059L6.058,5.128
	C6.057,5.126,6.056,5.124,6.056,5.122c0,0,0-0.001-0.001-0.002C6.053,5.118,6.051,5.117,6.051,5.115
	C6.049,5.113,6.048,5.111,6.046,5.107L6.043,5.103c0-0.001-0.002-0.002-0.003-0.004C6.038,5.098,6.035,5.096,6.034,5.093
	C6.032,5.09,6.031,5.088,6.031,5.086C6.029,5.085,6.028,5.085,6.027,5.084C6.024,5.082,6.024,5.078,6.025,5.076
	C6.022,5.074,6.02,5.071,6.017,5.068C6.004,5.052,5.989,5.035,5.978,5.025C5.977,5.023,5.975,5.021,5.973,5.02
	c-0.002,0-0.004-0.001-0.005-0.002L5.966,5.017C5.963,5.014,5.961,5.012,5.958,5.009C5.956,5.007,5.954,5.004,5.951,5.002
	L5.95,5.001C5.948,5,5.945,4.999,5.943,4.996C5.942,4.995,5.94,4.993,5.938,4.991C5.937,4.989,5.936,4.988,5.934,4.986
	C5.933,4.985,5.93,4.984,5.928,4.982S5.924,4.98,5.922,4.979C5.92,4.977,5.919,4.975,5.917,4.973
	C5.915,4.972,5.914,4.97,5.912,4.968c-0.003,0-0.005,0-0.008-0.002C5.902,4.964,5.901,4.962,5.9,4.96
	c0-0.001-0.001-0.002-0.001-0.002C5.896,4.955,5.892,4.953,5.888,4.951C5.883,4.948,5.879,4.946,5.875,4.943
	C5.873,4.941,5.872,4.94,5.87,4.938C5.869,4.936,5.867,4.934,5.865,4.932c-0.003,0-0.006-0.001-0.008-0.003
	C5.856,4.928,5.854,4.927,5.854,4.925c0-0.001-0.001-0.001-0.001-0.002c0,0-0.002-0.002-0.002-0.003L5.848,4.919
	C5.845,4.917,5.843,4.916,5.84,4.914C5.838,4.912,5.836,4.91,5.835,4.908C5.833,4.906,5.832,4.904,5.83,4.903
	C5.803,4.88,5.783,4.858,5.768,4.838C5.767,4.837,5.766,4.834,5.765,4.831C5.751,4.824,5.739,4.817,5.728,4.809
	C5.723,4.811,5.716,4.813,5.707,4.812C5.699,4.81,5.681,4.794,5.68,4.785C5.678,4.783,5.677,4.781,5.676,4.779
	C5.672,4.773,5.671,4.771,5.667,4.766C5.66,4.757,5.658,4.756,5.651,4.752C5.649,4.751,5.648,4.75,5.648,4.748
	c-0.004,0-0.006,0-0.007,0c-0.007-0.001-0.009-0.001-0.01,0C5.623,4.756,5.609,4.756,5.597,4.753
	C5.593,4.752,5.59,4.752,5.586,4.752L5.577,4.751C5.576,4.752,5.575,4.753,5.574,4.754c0,0-0.001,0.008-0.001,0.01
	s0.004,0.005,0.006,0.009c0.002,0,0.003,0.002,0.005,0.003C5.585,4.778,5.586,4.78,5.586,4.782c0,0.001,0,0.001,0.001,0.002
	c0,0.001,0.002,0.002,0.003,0.004C5.593,4.79,5.595,4.792,5.597,4.794C5.598,4.795,5.599,4.797,5.6,4.799
	C5.601,4.8,5.602,4.801,5.603,4.803l0.001,0.002c0.003,0.001,0.004,0.002,0.005,0.003C5.61,4.812,5.61,4.814,5.61,4.816
	C5.612,4.819,5.614,4.82,5.616,4.822C5.617,4.823,5.618,4.824,5.62,4.826l0.001,0.002C5.623,4.829,5.625,4.83,5.626,4.832
	c0.001,0.003,0.001,0.005,0.002,0.007C5.63,4.84,5.631,4.84,5.633,4.841c0.002,0.003,0.002,0.006,0.002,0.008
	C5.636,4.851,5.638,4.853,5.64,4.854C5.642,4.856,5.644,4.858,5.645,4.86c0.015,0.021,0.028,0.043,0.039,0.063
	c0,0,0.007,0.012,0.007,0.013c0.001,0.002,0.001,0.004,0,0.006C5.688,4.945,5.686,4.946,5.685,4.947H5.683H5.681
	C5.674,4.945,5.669,4.94,5.665,4.936C5.664,4.935,5.662,4.934,5.661,4.933C5.65,4.922,5.643,4.912,5.635,4.901L5.633,4.898
	c0,0-0.001-0.001-0.002-0.002C5.629,4.895,5.627,4.892,5.625,4.889C5.624,4.888,5.623,4.885,5.622,4.883
	c0-0.001,0-0.002-0.001-0.003C5.616,4.873,5.61,4.862,5.604,4.859C5.602,4.856,5.603,4.852,5.603,4.85L5.602,4.849
	C5.6,4.848,5.599,4.846,5.597,4.844C5.596,4.842,5.594,4.84,5.592,4.838C5.59,4.834,5.587,4.83,5.585,4.827
	C5.583,4.826,5.582,4.824,5.581,4.823C5.579,4.822,5.578,4.82,5.577,4.819C5.576,4.817,5.574,4.815,5.573,4.813
	C5.572,4.812,5.571,4.81,5.57,4.809c-0.001,0.001-0.005,0-0.009-0.003c0-0.001,0-0.001,0-0.002H5.559L5.558,4.801
	C5.557,4.8,5.556,4.799,5.556,4.799L5.554,4.798C5.549,4.794,5.546,4.792,5.542,4.789L5.539,4.788
	C5.536,4.787,5.534,4.786,5.532,4.784c-0.001,0.023,0.01,0.036,0.023,0.05C5.568,4.847,5.583,4.862,5.583,4.89v0.004L5.579,4.896
	c-0.009,0.003-0.018,0-0.022-0.006C5.553,4.888,5.55,4.886,5.546,4.885c0.003,0.021,0.012,0.035,0.021,0.05
	c0.01,0.017,0.021,0.033,0.023,0.057l0.001,0.011L5.582,5C5.57,4.996,5.563,4.987,5.557,4.979L5.553,4.973
	C5.551,4.972,5.55,4.97,5.549,4.968L5.546,4.965C5.54,4.957,5.535,4.95,5.535,4.944c0,0-0.001-0.002-0.002-0.003
	c0,0-0.001,0-0.001-0.002c-0.001,0-0.002-0.002-0.003-0.002L5.527,4.933C5.525,4.928,5.523,4.925,5.523,4.922
	c0,0-0.003-0.004-0.005-0.01C5.518,4.911,5.517,4.91,5.517,4.909C5.516,4.908,5.515,4.907,5.514,4.905L5.513,4.903
	c-0.002-0.002-0.005-0.007-0.006-0.01L5.505,4.889C5.504,4.886,5.503,4.884,5.503,4.882V4.881C5.501,4.88,5.499,4.879,5.498,4.878
	C5.496,4.875,5.496,4.873,5.496,4.871C5.495,4.869,5.493,4.868,5.492,4.868C5.49,4.866,5.488,4.865,5.486,4.863
	S5.483,4.858,5.481,4.855c0.001,0.008,0.005,0.016,0.008,0.023c0.001,0,0.003,0.002,0.005,0.004C5.496,4.885,5.496,4.888,5.496,4.89
	v0.002c0.001,0.001,0.002,0.002,0.003,0.004c0,0,0.001,0,0.001,0.002c0.002,0,0.003,0.002,0.004,0.005
	c0.001,0.001,0.001,0.002,0.001,0.003l0.001,0.002c0,0,0.001,0,0.001,0.001C5.509,4.91,5.51,4.911,5.511,4.913
	s0.001,0.003,0.001,0.004c0.002,0.001,0.004,0.002,0.005,0.004c0.001,0.003,0.001,0.005,0.001,0.007c0,0,0,0.001,0.001,0.002
	S5.52,4.932,5.521,4.934v0.002l0.003,0.001v0.005C5.526,4.949,5.53,4.967,5.517,4.984L5.514,4.987L5.51,4.986
	c-0.012-0.003-0.018-0.013-0.022-0.02C5.486,4.965,5.485,4.964,5.483,4.963C5.482,4.962,5.479,4.96,5.478,4.957
	c-0.005-0.006-0.009-0.013-0.014-0.02C5.46,4.932,5.456,4.926,5.453,4.921c-0.002-0.004-0.004-0.007-0.006-0.01
	C5.445,4.909,5.443,4.907,5.442,4.904c-0.006-0.006-0.01-0.014-0.014-0.018c-0.001,0-0.002-0.001-0.004-0.002
	c-0.001,0-0.003-0.001-0.005-0.002L5.418,4.881c-0.001,0-0.002,0-0.003,0C5.412,4.88,5.411,4.877,5.41,4.875
	C5.4,4.872,5.39,4.868,5.39,4.853H5.388C5.385,4.852,5.382,4.852,5.38,4.852c0,0.001,0.001,0.003,0.001,0.004v0.001
	C5.383,4.86,5.384,4.861,5.384,4.862c0.004,0.01,0.008,0.019,0.011,0.026c0.004,0.01,0.008,0.018,0.011,0.025
	C5.406,4.916,5.407,4.918,5.408,4.92c0.003,0.005,0.005,0.01,0.006,0.017V4.94c0.002,0.003,0.003,0.009,0,0.014
	C5.413,4.956,5.411,4.958,5.407,4.959H5.405L5.404,4.958C5.388,4.953,5.378,4.94,5.371,4.927C5.363,4.914,5.358,4.898,5.353,4.883
	C5.346,4.86,5.338,4.837,5.32,4.825C5.317,4.826,5.315,4.827,5.312,4.829c0,0.02,0.006,0.036,0.012,0.051
	c0.004,0.007,0.007,0.014,0.01,0.021h0.005l0.001,0.005V4.91C5.34,4.911,5.342,4.912,5.343,4.914v0.002
	C5.344,4.917,5.344,4.918,5.344,4.92c0,0.001,0.003,0.003,0.004,0.005c0.003,0.001,0.004,0.004,0.003,0.009
	c0.001,0.002,0.001,0.003,0.002,0.005c0,0.001,0.001,0.003,0.002,0.005c0.004,0.018-0.002,0.05,0.025,0.055
	c0.018,0.003,0.031,0.004,0.043,0.018c0.004,0.005,0.008,0.012,0.012,0.017C5.437,5.038,5.44,5.05,5.443,5.053
	c0.002,0.001,0.003,0.003,0.004,0.005C5.449,5.06,5.449,5.063,5.449,5.065c0,0,0,0.002,0.001,0.002c0,0.001,0.001,0.002,0.002,0.003
	l0.002,0.001l0.002,0.002v0.004C5.457,5.078,5.459,5.079,5.46,5.081C5.461,5.084,5.462,5.087,5.462,5.09
	c0.001,0,0.002,0.002,0.003,0.005l0.002,0.004C5.469,5.104,5.47,5.107,5.471,5.11h0.003v0.004c0.003,0.007,0.005,0.018,0.008,0.023
	c0.003,0.013,0.005,0.027,0.001,0.039L5.479,5.184L5.474,5.181c-0.021-0.01-0.028-0.032-0.036-0.053
	C5.432,5.104,5.425,5.084,5.401,5.079C5.404,5.091,5.408,5.101,5.412,5.11c0,0.001,0.001,0.002,0.001,0.003
	c0.001,0.001,0.002,0.003,0.004,0.005l0.001,0.004C5.42,5.126,5.421,5.13,5.422,5.133c0,0.002,0.001,0.004,0.001,0.005
	c0.003,0.007,0.007,0.014,0.01,0.02C5.435,5.16,5.436,5.163,5.437,5.165s0.002,0.004,0.002,0.004l0.004,0.005l0.003,0.005
	c0,0.002,0.001,0.004,0.001,0.006c0,0.001,0,0.001,0.001,0.002l0.005,0.002l0.001,0.003l0.002,0.005l0.002,0.005
	c0.001,0.002,0.002,0.005,0.002,0.007v0.002c0.002,0.001,0.004,0.002,0.005,0.005c0.001,0,0.002,0.001,0.002,0.002
	c0.002,0.004,0.003,0.006,0.003,0.008v0.003l0.004,0.005c0.002,0.004,0.004,0.007,0.005,0.01c0,0.001,0,0.002,0,0.002
	c0,0.002,0.001,0.003,0.004,0.005l0.001,0.003c0.003,0.004,0.004,0.009,0.005,0.013C5.488,5.269,5.489,5.272,5.49,5.274
	c0.001,0.001,0.002,0.002,0.003,0.002c0.003,0.005,0.004,0.009,0.006,0.012L5.5,5.292l0.009,0.027
	C5.514,5.332,5.518,5.345,5.52,5.358v0.003v0.002v0.003c0,0.001,0,0.002-0.001,0.003L5.517,5.376L5.51,5.374
	c-0.014-0.005-0.022-0.009-0.031-0.02v0.002c0,0.002,0,0.005-0.001,0.008v0.005L5.474,5.37H5.473c0.001,0,0.002,0.001,0.002,0.002
	c0.002,0.001,0.003,0.003,0.004,0.004l0.001,0.002v0.005c0,0,0.002,0.002,0.005,0.006c0,0.001,0.002,0.002,0.003,0.003
	C5.489,5.394,5.49,5.395,5.492,5.397l0.001,0.002v0.002l0.002,0.002c0,0.002,0.001,0.003,0.001,0.006
	c0.002,0,0.004,0.001,0.005,0.003s0.002,0.003,0.002,0.005h0.004v0.005c0.001,0.001,0.001,0.003,0,0.004
	C5.509,5.427,5.51,5.429,5.511,5.431c0.004,0.006,0.002,0.012,0,0.016c0,0.002-0.001,0.004-0.001,0.005
	c0.003,0.006,0.007,0.012,0.01,0.018h0.007l0.002,0.003c0.003,0.003,0.005,0.004,0.006,0.007C5.535,5.48,5.536,5.483,5.536,5.485
	c0.001,0.002,0.001,0.004,0.002,0.006C5.539,5.492,5.54,5.493,5.541,5.494s0.001,0.003,0.002,0.004l0.003,0.003L5.542,5.508H5.538
	c-0.003,0-0.004,0-0.01-0.004c0,0.002-0.001,0.005-0.005,0.008v0.001v0.001C5.525,5.52,5.527,5.524,5.528,5.529
	c0,0.002,0.001,0.005,0.002,0.007C5.531,5.54,5.532,5.543,5.532,5.547L5.533,5.55c0.002,0.004,0.003,0.009,0.002,0.015L5.533,5.57
	L5.527,5.569C5.526,5.57,5.525,5.571,5.524,5.571C5.522,5.574,5.52,5.575,5.52,5.575c-0.002,0-0.003,0.001-0.005,0.001
	c-0.001,0-0.002,0-0.004,0L5.51,5.578L5.507,5.579c-0.011,0.002-0.023,0-0.034-0.002c0.002,0.002,0.003,0.004,0.004,0.006h0.002
	c0,0,0.001,0.007,0,0.007c0.001,0.001,0.001,0.003,0,0.005L5.478,5.599H5.472L5.468,5.596H5.467L5.463,5.593
	c-0.001,0-0.001,0-0.002,0L5.458,5.599L5.451,5.596C5.446,5.593,5.442,5.591,5.44,5.589H5.438H5.435L5.428,5.586L5.43,5.582
	c-0.009,0-0.02,0.003-0.03,0.006C5.388,5.591,5.374,5.594,5.363,5.593C5.346,5.592,5.329,5.59,5.313,5.589L5.298,5.587
	C5.289,5.586,5.28,5.586,5.269,5.586c-0.007,0-0.015,0-0.022,0c-0.007,0-0.015,0.001-0.021,0.001c-0.016,0-0.027-0.001-0.038-0.004
	C5.184,5.582,5.181,5.582,5.178,5.582C5.175,5.581,5.172,5.581,5.17,5.58H5.167L5.166,5.578c-0.001,0-0.001-0.001-0.002-0.001
	c-0.006,0-0.01-0.001-0.013-0.003C5.149,5.573,5.145,5.572,5.144,5.572H5.142C5.109,5.564,5.084,5.557,5.056,5.548
	c-0.01-0.004-0.022-0.005-0.035-0.005C5.01,5.542,4.999,5.541,4.989,5.537C4.984,5.535,4.977,5.532,4.975,5.532
	c0,0-0.004-0.001-0.006-0.004C4.967,5.527,4.966,5.527,4.965,5.527c-0.002,0-0.003,0-0.005,0c-0.003,0-0.006-0.002-0.009-0.004
	L4.947,5.521c-0.002,0-0.004-0.001-0.006-0.003C4.94,5.517,4.938,5.517,4.937,5.517s-0.004,0-0.007-0.001
	C4.927,5.515,4.925,5.513,4.923,5.51C4.922,5.511,4.921,5.511,4.92,5.511L4.915,5.51L4.913,5.508c0-0.001-0.001-0.002-0.003-0.002
	L4.906,5.505c-0.001,0-0.003-0.001-0.004-0.003c-0.002,0-0.003,0-0.005,0C4.895,5.501,4.893,5.501,4.89,5.5
	c-0.001,0-0.004-0.003-0.006-0.005C4.881,5.494,4.879,5.494,4.877,5.491C4.874,5.49,4.872,5.49,4.87,5.489
	C4.864,5.488,4.858,5.486,4.854,5.483c-0.001,0-0.004-0.002-0.004-0.002H4.848c-0.002,0-0.003,0-0.004-0.002L4.84,5.48L4.838,5.479
	C4.835,5.477,4.832,5.475,4.829,5.471L4.828,5.469c-0.001,0-0.004-0.008-0.007-0.013c-0.001,0-0.002-0.001-0.003-0.002H4.815H4.813
	c-0.003-0.001-0.007-0.003-0.01-0.005L4.798,5.446L4.797,5.439L4.796,5.445C4.794,5.445,4.793,5.445,4.791,5.444"/>
<g opacity="0.15">
	<g>
		<defs>
			<rect id="SVGID_5_" x="5.45" y="5.324" width="0.05" height="0.06"/>
		</defs>
		<clipPath id="SVGID_6_">
			<use xlink:href="#SVGID_5_"  overflow="visible"/>
		</clipPath>
		<path clip-path="url(#SVGID_6_)" d="M5.499,5.37L5.499,5.37C5.498,5.367,5.497,5.365,5.497,5.362L5.496,5.361H5.495L5.493,5.358
			C5.491,5.356,5.491,5.354,5.491,5.352C5.49,5.351,5.489,5.349,5.488,5.348C5.479,5.337,5.476,5.33,5.469,5.327
			C5.464,5.325,5.458,5.322,5.456,5.322C5.454,5.321,5.453,5.321,5.451,5.32H5.45c0.001,0.002,0,0.005,0,0.007
			C5.451,5.328,5.452,5.329,5.452,5.33c0.002,0.001,0.002,0.002,0.003,0.003l0.001,0.004c0.001,0,0.002,0.001,0.002,0.002
			l0.001,0.004C5.46,5.344,5.46,5.346,5.46,5.348c0.002,0.001,0.004,0.003,0.005,0.007l0.002,0.003
			C5.468,5.36,5.47,5.364,5.472,5.368C5.473,5.37,5.474,5.373,5.475,5.373C5.477,5.375,5.478,5.378,5.478,5.38l0,0h0.002
			C5.482,5.374,5.487,5.368,5.499,5.37"/>
	</g>
</g>
<path d="M4.275,4.331c0.001,0.002,0.001,0.005,0.002,0.006s0.004,0.002,0.006,0.004c0.006,0.003,0.02,0.01,0.013,0.024
	c-0.009,0.012-0.012,0.022-0.01,0.031c0.005,0.018,0.035,0.031,0.059,0.042C4.357,4.443,4.37,4.449,4.378,4.454
	c0.055,0.04,0.101,0.105,0.12,0.171c0.016,0.002,0.035,0.002,0.058,0.002c0.115,0,0.265-0.018,0.319-0.059
	C4.894,4.554,4.912,4.52,4.929,4.49c0.008-0.015,0.016-0.029,0.022-0.039c0.007-0.012,0.02-0.039,0.033-0.069
	c0.024-0.054,0.042-0.091,0.054-0.099c0.049-0.035,0.081-0.072,0.098-0.116c-0.01,0-0.015,0.004-0.022,0.01
	C5.111,4.18,5.109,4.183,5.108,4.185C5.106,4.191,5.103,4.199,5.096,4.199c-0.006,0-0.01-0.006-0.011-0.007L5.084,4.19V4.188
	c-0.004-0.027,0.011-0.04,0.023-0.05c0.002-0.002,0.005-0.004,0.007-0.006c0.003-0.015-0.006-0.028-0.016-0.046
	C5.09,4.071,5.079,4.053,5.077,4.03L5.076,4.024l0.006-0.001C5.086,4.021,5.089,4.021,5.093,4.02
	c0.002-0.002,0.005-0.003,0.008-0.004C5.1,4.006,5.099,4,5.099,3.995C5.097,3.984,5.096,3.976,5.097,3.963
	C5.082,3.946,5.084,3.917,5.085,3.89c0.001-0.013,0.002-0.024,0.001-0.034C5.08,3.853,5.079,3.844,5.079,3.838
	c-0.005-0.003-0.007-0.007-0.008-0.01C5.07,3.826,5.07,3.824,5.069,3.823c0,0-0.003-0.001-0.005-0.001
	C5.06,3.821,5.046,3.819,5.049,3.808V3.745l0.004-0.002c0.024-0.009,0.039-0.016,0.039-0.037C5.089,3.705,5.087,3.703,5.087,3.702
	C5.086,3.7,5.085,3.698,5.085,3.695C5.078,3.693,5.068,3.693,5.06,3.694C5.055,3.695,5.052,3.695,5.048,3.695
	c-0.013,0-0.017-0.007-0.018-0.013v0V3.68V3.677c0,0-0.001-0.001-0.002-0.002C5.021,3.667,5.015,3.659,5.009,3.65
	c-0.006,0.002-0.008,0.001-0.012,0H4.993L4.991,3.646c0-0.001-0.001-0.001-0.005-0.001L4.979,3.646V3.635
	C4.977,3.634,4.975,3.632,4.972,3.63c-0.005-0.005-0.01-0.009-0.016-0.011C4.948,3.613,4.944,3.606,4.942,3.598
	C4.938,3.595,4.935,3.593,4.932,3.59L4.926,3.584C4.923,3.581,4.92,3.577,4.919,3.574C4.906,3.565,4.89,3.553,4.875,3.539
	C4.872,3.536,4.869,3.532,4.867,3.527C4.856,3.525,4.847,3.523,4.837,3.52c-0.002,0-0.005-0.002-0.006-0.004H4.824
	C4.809,3.52,4.793,3.526,4.778,3.532L4.773,3.534c-0.003,0.005-0.005,0.01-0.007,0.017L4.766,3.558H4.76
	c-0.01,0-0.011,0.001-0.012,0.005c0,0.003-0.001,0.006-0.004,0.009C4.742,3.573,4.737,3.574,4.731,3.573
	c-0.001,0-0.001,0-0.002-0.001C4.729,3.574,4.727,3.575,4.725,3.577S4.722,3.581,4.72,3.581c-0.011,0.008-0.017,0.014-0.023,0.02
	C4.695,3.603,4.694,3.604,4.694,3.604C4.691,3.609,4.687,3.617,4.671,3.615L4.664,3.614l0.002-0.007
	c0.003-0.015,0.009-0.028,0.015-0.04c0.006-0.013,0.011-0.025,0.014-0.04L4.683,3.523C4.676,3.524,4.67,3.526,4.663,3.528
	C4.65,3.537,4.648,3.539,4.648,3.54c0,0.008-0.007,0.018-0.011,0.022L4.636,3.565C4.634,3.567,4.629,3.57,4.627,3.572
	S4.623,3.576,4.622,3.577c-0.001,0-0.001,0.001-0.002,0.002C4.618,3.582,4.614,3.587,4.606,3.588L4.604,3.589L4.602,3.587
	c-0.001,0-0.001-0.001-0.002-0.001C4.589,3.593,4.581,3.601,4.573,3.615c0.004,0.014,0.006,0.03,0.002,0.048v0.001L4.573,3.666
	C4.566,3.673,4.56,3.677,4.554,3.677c-0.004,0-0.008-0.001-0.011-0.002C4.54,3.674,4.537,3.673,4.532,3.673
	c-0.001,0-0.002,0.001-0.004,0.002c0,0-0.001,0.001-0.002,0.001c0,0.001-0.001,0.002-0.001,0.003
	C4.523,3.682,4.52,3.684,4.512,3.682H4.511c0.001,0.009,0.001,0.018,0,0.026c0,0.007-0.001,0.014,0,0.021v0.001L4.51,3.731
	c-0.013,0.025-0.041,0.04-0.068,0.054C4.415,3.798,4.387,3.813,4.373,3.837C4.367,3.85,4.366,3.856,4.365,3.865
	c0,0.008-0.001,0.016-0.004,0.029C4.355,3.913,4.353,3.944,4.348,3.98c-0.009,0.081-0.02,0.173-0.053,0.202
	c-0.029,0.024-0.03,0.075-0.029,0.133C4.273,4.319,4.275,4.327,4.275,4.331"/>
<g opacity="0.15">
	<g>
		<defs>
			<rect id="SVGID_7_" x="5.089" y="3.824" width="0.004" height="0.01"/>
		</defs>
		<clipPath id="SVGID_8_">
			<use xlink:href="#SVGID_7_"  overflow="visible"/>
		</clipPath>
		<polyline clip-path="url(#SVGID_8_)" points="5.093,3.831 5.093,3.829 5.089,3.828 5.089,3.831 5.093,3.831 		"/>
	</g>
</g>
</svg>
